STARTFONT 2.3
FONT -FontForge-Hanalei-Book-R-Normal--14-140-72-72-P-70-ISO10646-1
SIZE 14 72 72  4
FONTBOUNDINGBOX 19 19 -1 -4
COMMENT "Generated by fontforge, http://fontforge.sourceforge.net"
COMMENT "Copyright (c) 2012 by Brian J. Bonislawsky DBA Astigmatic (AOETI) (astigma@astigmatic.com), with ReservedFont Name "Hanalei""
STARTPROPERTIES 40
FOUNDRY "FontForge"
FAMILY_NAME "Hanalei"
WEIGHT_NAME "Book"
SLANT "R"
SETWIDTH_NAME "Normal"
ADD_STYLE_NAME ""
PIXEL_SIZE 14
POINT_SIZE 140
RESOLUTION_X 72
RESOLUTION_Y 72
SPACING "P"
AVERAGE_WIDTH 70
CHARSET_REGISTRY "ISO10646"
CHARSET_ENCODING "1"
FONTNAME_REGISTRY ""
CHARSET_COLLECTIONS "ISO8859-2 ISO8859-9 ISO8859-4 ISO10646-1"
BITS_PER_PIXEL 4
FONT_NAME "Hanalei-Regular"
FACE_NAME "Hanalei"
COPYRIGHT "Copyright (c) 2012 by Brian J. Bonislawsky DBA Astigmatic (AOETI) (astigma@astigmatic.com), with ReservedFont Name "Hanalei""
FONT_VERSION "1.000"
FONT_ASCENT 11
FONT_DESCENT 3
UNDERLINE_POSITION -2
UNDERLINE_THICKNESS 1
X_HEIGHT 9
CAP_HEIGHT 9
RAW_ASCENT 799
RAW_DESCENT 200
NORM_SPACE 3
RELATIVE_WEIGHT 40
RELATIVE_SETWIDTH 50
SUPERSCRIPT_X 0
SUPERSCRIPT_Y 6
SUPERSCRIPT_SIZE 9
SUBSCRIPT_X 0
SUBSCRIPT_Y 1
SUBSCRIPT_SIZE 9
AVG_LOWERCASE_WIDTH 75
AVG_UPPERCASE_WIDTH 74
ENDPROPERTIES
CHARS 366
STARTCHAR space
ENCODING 32
SWIDTH 200 0
DWIDTH 3 0
BBX 1 1 0 0
BITMAP
00
ENDCHAR
STARTCHAR exclam
ENCODING 33
SWIDTH 257 0
DWIDTH 4 0
BBX 4 11 0 -1
BITMAP
2551
5041
4150
6560
5050
4150
5050
0530
4460
4250
0210
ENDCHAR
STARTCHAR quotedbl
ENCODING 34
SWIDTH 476 0
DWIDTH 7 0
BBX 7 7 0 4
BITMAP
03203200
52733520
50523410
65646520
50532410
50551230
25415500
ENDCHAR
STARTCHAR numbersign
ENCODING 35
SWIDTH 1076 0
DWIDTH 15 0
BBX 15 10 0 0
BITMAP
2656045616575620
2328050541043560
2343550647666050
5657675632404040
3242290531557450
3237070656642160
5659647625565440
3252505504543200
5142504805022500
4562369605444500
ENDCHAR
STARTCHAR dollar
ENCODING 36
SWIDTH 453 0
DWIDTH 6 0
BBX 6 13 0 -2
BITMAP
006530
005050
008666
453506
501653
665920
264145
006506
356768
500455
457530
015220
006520
ENDCHAR
STARTCHAR percent
ENCODING 37
SWIDTH 889 0
DWIDTH 12 0
BBX 13 10 0 0
BITMAP
24441033000000
55418044100000
42364134000000
45344544000000
54244404444100
14464425520700
00000764066500
00002254044400
00005044545310
00002432547700
ENDCHAR
STARTCHAR ampersand
ENCODING 38
SWIDTH 627 0
DWIDTH 9 0
BBX 9 12 0 -1
BITMAP
0021000000
0198585400
0605176600
0242941600
0065606000
0192361000
0506060310
4238647350
6088506260
8514803510
5455366100
0100000000
ENDCHAR
STARTCHAR quotesingle
ENCODING 39
SWIDTH 246 0
DWIDTH 3 0
BBX 3 7 0 4
BITMAP
0320
5270
5050
6560
5050
5050
2540
ENDCHAR
STARTCHAR parenleft
ENCODING 40
SWIDTH 387 0
DWIDTH 5 0
BBX 7 12 -1 -1
BITMAP
00036200
00060600
00522400
00755000
05134000
15060000
09690000
03316000
00664300
00250510
00042050
00006600
ENDCHAR
STARTCHAR parenright
ENCODING 41
SWIDTH 386 0
DWIDTH 5 0
BBX 7 12 -1 -1
BITMAP
00550000
05142000
01507000
00545500
00050600
00042150
00057740
00340600
00638100
06124000
15060000
04620000
ENDCHAR
STARTCHAR asterisk
ENCODING 42
SWIDTH 517 0
DWIDTH 7 0
BBX 7 8 0 3
BITMAP
00010000
00355000
24235340
62657360
14706530
03475500
06515600
01302200
ENDCHAR
STARTCHAR plus
ENCODING 43
SWIDTH 458 0
DWIDTH 6 0
BBX 7 7 0 1
BITMAP
00351000
00505000
45686600
50040410
45757600
00515000
00350000
ENDCHAR
STARTCHAR comma
ENCODING 44
SWIDTH 228 0
DWIDTH 3 0
BBX 4 4 -1 -2
BITMAP
0165
0606
4133
1650
ENDCHAR
STARTCHAR hyphen
ENCODING 45
SWIDTH 465 0
DWIDTH 7 0
BBX 7 3 0 3
BITMAP
45585700
50040420
35555500
ENDCHAR
STARTCHAR period
ENCODING 46
SWIDTH 202 0
DWIDTH 3 0
BBX 3 3 0 -1
BITMAP
5440
5250
0300
ENDCHAR
STARTCHAR slash
ENCODING 47
SWIDTH 453 0
DWIDTH 6 0
BBX 6 10 0 0
BITMAP
000253
000506
001506
006553
006060
052240
064600
241500
605100
356000
ENDCHAR
STARTCHAR zero
ENCODING 48
SWIDTH 646 0
DWIDTH 9 0
BBX 10 12 0 -1
BITMAP
0002000000
0026750000
0060452000
0662705200
1407274500
7651052160
8070038042
6207383840
0573705300
0067033000
0005550000
0000100000
ENDCHAR
STARTCHAR one
ENCODING 49
SWIDTH 400 0
DWIDTH 6 0
BBX 7 11 -1 -1
BITMAP
00077510
02551320
15061500
06685610
00060500
00050500
00065610
00050500
00050500
00062610
00003100
ENDCHAR
STARTCHAR two
ENCODING 50
SWIDTH 502 0
DWIDTH 7 0
BBX 7 11 0 -1
BITMAP
00464000
03336300
52181420
60615060
15137670
00480530
04307200
43074410
66672160
54565450
01010100
ENDCHAR
STARTCHAR three
ENCODING 51
SWIDTH 456 0
DWIDTH 6 0
BBX 7 11 0 -1
BITMAP
25532000
50026300
45556600
01844400
16475000
16415100
03624A10
25782510
61044610
53551000
02000000
ENDCHAR
STARTCHAR four
ENCODING 52
SWIDTH 514 0
DWIDTH 7 0
BBX 8 11 -1 -1
BITMAP
00005652
00041605
00341523
00657735
04136434
15074736
05733656
00233433
00003333
00004344
00000220
ENDCHAR
STARTCHAR five
ENCODING 53
SWIDTH 500 0
DWIDTH 7 0
BBX 7 10 0 0
BITMAP
15565620
50550050
40665520
53620000
54376A20
26457050
01135050
25567550
50051280
55575620
ENDCHAR
STARTCHAR six
ENCODING 54
SWIDTH 520 0
DWIDTH 7 0
BBX 8 11 0 -1
BITMAP
00651000
02315000
05150000
07570000
05066200
24150930
55586435
50656482
50600350
65735200
00330000
ENDCHAR
STARTCHAR seven
ENCODING 55
SWIDTH 423 0
DWIDTH 6 0
BBX 6 11 0 -1
BITMAP
456554
502205
756659
002815
005053
006050
018450
042240
060500
065600
001000
ENDCHAR
STARTCHAR eight
ENCODING 56
SWIDTH 527 0
DWIDTH 7 0
BBX 8 11 0 -1
BITMAP
15565540
50033460
86668170
15075050
05624500
03704600
05165500
42472240
60757052
386596B1
01101010
ENDCHAR
STARTCHAR nine
ENCODING 57
SWIDTH 500 0
DWIDTH 7 0
BBX 8 11 0 -1
BITMAP
00026400
45750771
50046560
85887150
53170610
04350600
00854300
00606000
05124000
04460000
00120000
ENDCHAR
STARTCHAR colon
ENCODING 58
SWIDTH 245 0
DWIDTH 3 0
BBX 3 9 0 -1
BITMAP
0310
4260
3560
0000
0000
0000
4460
4360
0210
ENDCHAR
STARTCHAR semicolon
ENCODING 59
SWIDTH 270 0
DWIDTH 4 0
BBX 5 10 -1 -2
BITMAP
002200
006520
007710
000000
000000
000000
006600
041420
141400
056000
ENDCHAR
STARTCHAR less
ENCODING 60
SWIDTH 445 0
DWIDTH 6 0
BBX 6 8 0 1
BITMAP
000162
006506
362545
601620
667500
540663
027405
000364
ENDCHAR
STARTCHAR equal
ENCODING 61
SWIDTH 484 0
DWIDTH 7 0
BBX 7 6 0 2
BITMAP
45585720
50040240
15555600
15565500
50050240
45565720
ENDCHAR
STARTCHAR greater
ENCODING 62
SWIDTH 445 0
DWIDTH 6 0
BBX 6 8 0 1
BITMAP
062000
514710
353264
016305
004768
267026
501730
265000
ENDCHAR
STARTCHAR question
ENCODING 63
SWIDTH 455 0
DWIDTH 6 0
BBX 7 11 0 -1
BITMAP
36520000
50175500
45430500
00675910
06205400
05661000
05050000
03510000
07620000
06520000
01200000
ENDCHAR
STARTCHAR at
ENCODING 64
SWIDTH 812 0
DWIDTH 11 0
BBX 11 12 0 -1
BITMAP
011000100000
06458585A500
375565663400
235345445510
555544266230
315415554350
425450443340
546834757440
415544634670
507642112310
186415000000
000444000000
ENDCHAR
STARTCHAR A
ENCODING 65
SWIDTH 507 0
DWIDTH 7 0
BBX 8 10 0 0
BITMAP
01661000
03228200
05051400
08560500
050A5600
24165760
55587214
50504563
50758050
65504561
ENDCHAR
STARTCHAR B
ENCODING 66
SWIDTH 533 0
DWIDTH 7 0
BBX 8 12 0 -1
BITMAP
01500000
28256100
38105552
33766105
65565581
41553460
41526630
55584052
41786573
67204551
56155100
03500000
ENDCHAR
STARTCHAR C
ENCODING 67
SWIDTH 515 0
DWIDTH 7 0
BBX 8 11 0 -1
BITMAP
06557550
05005042
07576570
18350000
14240000
33320000
54620000
50666570
60605033
39756560
03100000
ENDCHAR
STARTCHAR D
ENCODING 68
SWIDTH 520 0
DWIDTH 7 0
BBX 8 12 0 -1
BITMAP
00110000
28560000
38016100
32713800
65583161
41515215
41504765
55585061
41523600
50516100
55771000
00220000
ENDCHAR
STARTCHAR E
ENCODING 69
SWIDTH 490 0
DWIDTH 7 0
BBX 7 10 0 0
BITMAP
26666550
32325050
32456550
65520000
41555400
41520500
55555100
41575530
50532050
55765540
ENDCHAR
STARTCHAR F
ENCODING 70
SWIDTH 475 0
DWIDTH 7 0
BBX 7 10 0 0
BITMAP
26666550
32325050
32456550
65520000
41555400
41520500
55555100
41500000
50500000
55610000
ENDCHAR
STARTCHAR G
ENCODING 71
SWIDTH 557 0
DWIDTH 8 0
BBX 8 11 0 -1
BITMAP
06557550
05005042
07576570
18350000
14241552
33320514
54620735
50666705
60605505
39756754
03100000
ENDCHAR
STARTCHAR H
ENCODING 72
SWIDTH 611 0
DWIDTH 9 0
BBX 9 10 0 0
BITMAP
2662065500
3232050500
3240060500
6552085600
4150050800
4152395250
5559231350
4155575600
5054050500
4561065500
ENDCHAR
STARTCHAR I
ENCODING 73
SWIDTH 266 0
DWIDTH 4 0
BBX 4 10 0 0
BITMAP
2662
3232
3240
6552
4151
4150
5552
4150
5040
4561
ENDCHAR
STARTCHAR J
ENCODING 74
SWIDTH 484 0
DWIDTH 7 0
BBX 8 11 -1 -1
BITMAP
00001652
00002313
00002432
00004644
00103242
06613342
25066644
03549241
00721641
00060962
00025100
ENDCHAR
STARTCHAR K
ENCODING 75
SWIDTH 541 0
DWIDTH 8 0
BBX 8 11 0 -1
BITMAP
26620350
32320615
32428035
65583450
41531600
41536600
55585530
41548050
50505042
55613561
00000100
ENDCHAR
STARTCHAR L
ENCODING 76
SWIDTH 467 0
DWIDTH 7 0
BBX 7 10 0 0
BITMAP
26620000
32320000
32400000
65520000
41510000
41500000
55520000
41575440
50450050
45675560
ENDCHAR
STARTCHAR M
ENCODING 77
SWIDTH 733 0
DWIDTH 10 0
BBX 11 10 0 0
BITMAP
045500653000
050540509000
060553238000
084566564200
051948073500
3237060A0500
5567384A3600
506344652500
505050923410
655065427630
ENDCHAR
STARTCHAR N
ENCODING 78
SWIDTH 598 0
DWIDTH 8 0
BBX 8 10 0 0
BITMAP
26650455
32370505
32425505
65566856
41513805
41560705
55585566
41515055
50406057
55614696
ENDCHAR
STARTCHAR O
ENCODING 79
SWIDTH 612 0
DWIDTH 9 0
BBX 9 11 0 -1
BITMAP
0655757300
0500504700
0757667500
1835085600
1424050500
3332050500
5462065610
5065775A00
6060500830
3975658810
0310000000
ENDCHAR
STARTCHAR P
ENCODING 80
SWIDTH 513 0
DWIDTH 7 0
BBX 8 12 0 -1
BITMAP
00200000
28455000
37006651
35864005
65527682
40593161
41504600
55654000
40530000
50500000
53610000
02100000
ENDCHAR
STARTCHAR Q
ENCODING 81
SWIDTH 612 0
DWIDTH 9 0
BBX 9 12 0 -2
BITMAP
0655757300
0500504700
0757667500
1835085600
1424050500
3332050500
5462065610
5065775A00
6060500830
3976678810
0315050000
0006550000
ENDCHAR
STARTCHAR R
ENCODING 82
SWIDTH 532 0
DWIDTH 7 0
BBX 8 12 0 -1
BITMAP
00100000
18554000
47006651
35754015
55528672
50586271
41562800
55682330
50548350
50504224
62510643
03200110
ENDCHAR
STARTCHAR S
ENCODING 83
SWIDTH 442 0
DWIDTH 6 0
BBX 7 11 0 -1
BITMAP
25575700
75540500
60655400
14250000
08341000
01506000
00565200
23770610
61461510
64667400
11000000
ENDCHAR
STARTCHAR T
ENCODING 84
SWIDTH 453 0
DWIDTH 6 0
BBX 8 10 -1 0
BITMAP
06558563
14004005
05585851
00083500
00150500
00050500
00184500
00050500
00140400
00265400
ENDCHAR
STARTCHAR U
ENCODING 85
SWIDTH 583 0
DWIDTH 8 0
BBX 8 11 0 -1
BITMAP
06531653
05051415
05140514
46441845
32410505
51500505
64610856
50665775
60614037
387568A6
04200000
ENDCHAR
STARTCHAR V
ENCODING 86
SWIDTH 506 0
DWIDTH 7 0
BBX 7 11 0 -1
BITMAP
25201410
60505170
50505050
54618450
42235140
05092500
07565600
05050500
02440500
01686300
00320000
ENDCHAR
STARTCHAR W
ENCODING 87
SWIDTH 735 0
DWIDTH 10 0
BBX 11 11 0 -1
BITMAP
252000025400
605055350510
505180550500
546684694500
523742550500
050805342300
075849855200
060428505000
037145605000
028771726000
003200131000
ENDCHAR
STARTCHAR X
ENCODING 88
SWIDTH 483 0
DWIDTH 7 0
BBX 7 10 0 0
BITMAP
05203400
60505250
52371340
06683500
06804200
03418100
06664500
43180410
60514060
55406530
ENDCHAR
STARTCHAR Y
ENCODING 89
SWIDTH 484 0
DWIDTH 7 0
BBX 9 10 -1 0
BITMAP
0350025300
2433050610
1605350600
0264954300
0061506000
0008314000
0006461000
0024050000
0060410000
0035600000
ENDCHAR
STARTCHAR Z
ENCODING 90
SWIDTH 458 0
DWIDTH 6 0
BBX 8 10 -1 0
BITMAP
01547550
05005063
02657493
00047260
00060610
00622400
00656000
06129540
15055050
04775550
ENDCHAR
STARTCHAR bracketleft
ENCODING 91
SWIDTH 420 0
DWIDTH 6 0
BBX 6 12 0 -1
BITMAP
002454
288105
504553
515000
756000
505000
505000
657000
506000
506453
627005
066444
ENDCHAR
STARTCHAR backslash
ENCODING 92
SWIDTH 453 0
DWIDTH 6 0
BBX 7 10 0 0
BITMAP
15400000
60500000
33240000
06580000
05132000
00507000
00556100
00241600
00050510
00045500
ENDCHAR
STARTCHAR bracketright
ENCODING 93
SWIDTH 420 0
DWIDTH 6 0
BBX 6 12 0 -1
BITMAP
454100
501881
446313
001423
002556
001514
000514
002655
000515
454505
501625
544650
ENDCHAR
STARTCHAR asciicircum
ENCODING 94
SWIDTH 353 0
DWIDTH 5 0
BBX 5 5 0 5
BITMAP
001000
056600
236410
535150
140410
ENDCHAR
STARTCHAR underscore
ENCODING 95
SWIDTH 499 0
DWIDTH 7 0
BBX 7 3 0 -4
BITMAP
36585620
50040050
16555610
ENDCHAR
STARTCHAR grave
ENCODING 96
SWIDTH 183 0
DWIDTH 3 0
BBX 3 4 0 10
BITMAP
4500
6410
3250
0510
ENDCHAR
STARTCHAR a
ENCODING 97
SWIDTH 507 0
DWIDTH 7 0
BBX 8 10 0 0
BITMAP
01661000
03228200
05051400
08560500
050A5600
24165760
55587214
50504563
50758050
65504561
ENDCHAR
STARTCHAR b
ENCODING 98
SWIDTH 533 0
DWIDTH 7 0
BBX 8 12 0 -1
BITMAP
01500000
28256100
38105552
33766105
65565581
41553460
41526630
55584052
41786573
67204551
56155100
03500000
ENDCHAR
STARTCHAR c
ENCODING 99
SWIDTH 515 0
DWIDTH 7 0
BBX 8 11 0 -1
BITMAP
06557550
05005042
07576570
18350000
14240000
33320000
54620000
50666570
60605033
39756560
03100000
ENDCHAR
STARTCHAR d
ENCODING 100
SWIDTH 520 0
DWIDTH 7 0
BBX 8 12 0 -1
BITMAP
00110000
28560000
38016100
32713800
65583161
41515215
41504765
55585061
41523600
50516100
55771000
00220000
ENDCHAR
STARTCHAR e
ENCODING 101
SWIDTH 490 0
DWIDTH 7 0
BBX 7 10 0 0
BITMAP
26666550
32325050
32456550
65520000
41555400
41520500
55555100
41575530
50532050
55765540
ENDCHAR
STARTCHAR f
ENCODING 102
SWIDTH 475 0
DWIDTH 7 0
BBX 7 10 0 0
BITMAP
26666550
32325050
32456550
65520000
41555400
41520500
55555100
41500000
50500000
55610000
ENDCHAR
STARTCHAR g
ENCODING 103
SWIDTH 557 0
DWIDTH 8 0
BBX 8 11 0 -1
BITMAP
06557550
05005042
07576570
18350000
14241552
33320514
54620735
50666705
60605505
39756754
03100000
ENDCHAR
STARTCHAR h
ENCODING 104
SWIDTH 611 0
DWIDTH 9 0
BBX 9 10 0 0
BITMAP
2662065500
3232050500
3240060500
6552085600
4150050800
4152395250
5559231350
4155575600
5054050500
4561065500
ENDCHAR
STARTCHAR i
ENCODING 105
SWIDTH 266 0
DWIDTH 4 0
BBX 4 10 0 0
BITMAP
2662
3232
3240
6552
4151
4150
5552
4150
5040
4561
ENDCHAR
STARTCHAR j
ENCODING 106
SWIDTH 482 0
DWIDTH 7 0
BBX 8 11 -1 -1
BITMAP
00001652
00002313
00002432
00004644
00103242
06613342
25066644
03549241
00721641
00060962
00025100
ENDCHAR
STARTCHAR k
ENCODING 107
SWIDTH 541 0
DWIDTH 8 0
BBX 8 11 0 -1
BITMAP
26620350
32320615
32428035
65583450
41531600
41536600
55585530
41548050
50505042
55613561
00000100
ENDCHAR
STARTCHAR l
ENCODING 108
SWIDTH 467 0
DWIDTH 7 0
BBX 7 10 0 0
BITMAP
26620000
32320000
32400000
65520000
41510000
41500000
55520000
41575440
50450050
45675560
ENDCHAR
STARTCHAR m
ENCODING 109
SWIDTH 733 0
DWIDTH 10 0
BBX 11 10 0 0
BITMAP
045500653000
050540509000
060553238000
084566564200
051948073500
3237060A0500
5567384A3600
506344652500
505050923410
655065427630
ENDCHAR
STARTCHAR n
ENCODING 110
SWIDTH 598 0
DWIDTH 8 0
BBX 8 10 0 0
BITMAP
26650455
32370505
32425505
65566856
41513805
41560705
55585566
41515055
50406057
55614696
ENDCHAR
STARTCHAR o
ENCODING 111
SWIDTH 612 0
DWIDTH 9 0
BBX 9 11 0 -1
BITMAP
0655757300
0500504700
0757667500
1835085600
1424050500
3332050500
5462065610
5065775A00
6060500830
3975658810
0310000000
ENDCHAR
STARTCHAR p
ENCODING 112
SWIDTH 513 0
DWIDTH 7 0
BBX 8 12 0 -1
BITMAP
00200000
28455000
37006651
35864005
65527682
40593161
41504600
55654000
40530000
50500000
53610000
02100000
ENDCHAR
STARTCHAR q
ENCODING 113
SWIDTH 612 0
DWIDTH 9 0
BBX 9 12 0 -2
BITMAP
0655757300
0500504700
0757667500
1835085600
1424050500
3332050500
5462065610
5065775A00
6060500830
3976678810
0315050000
0006550000
ENDCHAR
STARTCHAR r
ENCODING 114
SWIDTH 532 0
DWIDTH 7 0
BBX 8 12 0 -1
BITMAP
00100000
18554000
47006651
35754015
55528672
50586271
41562800
55682330
50548350
50504224
62510643
03200110
ENDCHAR
STARTCHAR s
ENCODING 115
SWIDTH 442 0
DWIDTH 6 0
BBX 7 11 0 -1
BITMAP
25575700
75540500
60655400
14250000
08341000
01506000
00565200
23770610
61461510
64667400
11000000
ENDCHAR
STARTCHAR t
ENCODING 116
SWIDTH 453 0
DWIDTH 6 0
BBX 8 10 -1 0
BITMAP
06558563
14004005
05585851
00083500
00150500
00050500
00184500
00050500
00140400
00265400
ENDCHAR
STARTCHAR u
ENCODING 117
SWIDTH 583 0
DWIDTH 8 0
BBX 8 11 0 -1
BITMAP
06531653
05051415
05140514
46441845
32410505
51500505
64610856
50665775
60614037
387568A6
04200000
ENDCHAR
STARTCHAR v
ENCODING 118
SWIDTH 506 0
DWIDTH 7 0
BBX 7 11 0 -1
BITMAP
25201410
60505170
50505050
54618450
42235140
05092500
07565600
05050500
02440500
01686300
00320000
ENDCHAR
STARTCHAR w
ENCODING 119
SWIDTH 735 0
DWIDTH 10 0
BBX 11 11 0 -1
BITMAP
252000025400
605055350510
505180550500
546684694500
523742550500
050805342300
075849855200
060428505000
037145605000
028771726000
003200131000
ENDCHAR
STARTCHAR x
ENCODING 120
SWIDTH 483 0
DWIDTH 7 0
BBX 7 10 0 0
BITMAP
05203400
60505250
52371340
06683500
06804200
03418100
06664500
43180410
60514060
55406530
ENDCHAR
STARTCHAR y
ENCODING 121
SWIDTH 484 0
DWIDTH 7 0
BBX 9 10 -1 0
BITMAP
0350025300
2433050610
1605350600
0264954300
0061506000
0008314000
0006461000
0024050000
0060410000
0035600000
ENDCHAR
STARTCHAR z
ENCODING 122
SWIDTH 458 0
DWIDTH 6 0
BBX 8 10 -1 0
BITMAP
01547550
05005063
02657493
00047260
00060610
00622400
00656000
06129540
15055050
04775550
ENDCHAR
STARTCHAR braceleft
ENCODING 123
SWIDTH 473 0
DWIDTH 7 0
BBX 7 12 0 -1
BITMAP
00234610
05460050
03336520
00945000
33635100
52336300
75568100
00705000
02645000
06055410
06150050
01665620
ENDCHAR
STARTCHAR bar
ENCODING 124
SWIDTH 263 0
DWIDTH 4 0
BBX 4 12 0 -1
BITMAP
1661
4123
3241
4341
6352
4150
4150
6662
5050
5050
6041
2660
ENDCHAR
STARTCHAR braceright
ENCODING 125
SWIDTH 473 0
DWIDTH 7 0
BBX 7 12 0 -1
BITMAP
45331000
50436100
45705000
00556000
04345410
06633150
05755450
02324000
00656000
24813300
50143400
55574000
ENDCHAR
STARTCHAR asciitilde
ENCODING 126
SWIDTH 456 0
DWIDTH 6 0
BBX 6 4 0 3
BITMAP
056666
245636
537192
140550
ENDCHAR
STARTCHAR nonbreakingspace
ENCODING 160
SWIDTH 200 0
DWIDTH 3 0
BBX 1 1 0 0
BITMAP
00
ENDCHAR
STARTCHAR exclamdown
ENCODING 161
SWIDTH 259 0
DWIDTH 4 0
BBX 4 11 0 -1
BITMAP
0550
1450
1550
2560
3250
4150
5381
5060
5050
5361
0310
ENDCHAR
STARTCHAR cent
ENCODING 162
SWIDTH 480 0
DWIDTH 7 0
BBX 7 13 0 -2
BITMAP
00455000
00505100
00567610
16541150
65046410
53710000
75600000
50620000
60638510
19731050
00547610
00505000
00454000
ENDCHAR
STARTCHAR sterling
ENCODING 163
SWIDTH 594 0
DWIDTH 8 0
BBX 8 10 0 0
BITMAP
00063000
00912560
00853041
00617550
55838710
50505240
35948600
00509655
00506405
01758656
ENDCHAR
STARTCHAR currency
ENCODING 164
SWIDTH 640 0
DWIDTH 9 0
BBX 9 9 0 1
BITMAP
0200000100
4463645440
5155635250
0565716800
1603465240
1617582430
26A1345710
5046636060
2530553610
ENDCHAR
STARTCHAR yen
ENCODING 165
SWIDTH 575 0
DWIDTH 8 0
BBX 8 10 0 0
BITMAP
03200350
52600516
52253324
06449550
02614150
06768670
05005050
05857550
01506000
00555000
ENDCHAR
STARTCHAR brokenbar
ENCODING 166
SWIDTH 258 0
DWIDTH 4 0
BBX 4 13 0 -2
BITMAP
4570
4150
6560
5050
5041
3560
0420
5160
4150
6560
5050
5051
1540
ENDCHAR
STARTCHAR section
ENCODING 167
SWIDTH 474 0
DWIDTH 7 0
BBX 7 11 0 -1
BITMAP
25575700
54040500
62597400
45325A00
05464320
41570500
56555700
16850500
52155800
53565600
03000000
ENDCHAR
STARTCHAR dieresis
ENCODING 168
SWIDTH 351 0
DWIDTH 5 0
BBX 5 3 0 10
BITMAP
553550
525150
351520
ENDCHAR
STARTCHAR copyright
ENCODING 169
SWIDTH 719 0
DWIDTH 10 0
BBX 10 12 0 -1
BITMAP
0110001000
16458576B2
5655656805
4151443405
6458345645
5055621505
4045511505
6456745645
5041543405
5077548665
2A66556461
0001000010
ENDCHAR
STARTCHAR ordfeminine
ENCODING 170
SWIDTH 455 0
DWIDTH 6 0
BBX 8 10 -1 0
BITMAP
00266500
00560500
00623230
02837570
05378050
06414241
16564525
02953840
01412150
00744530
ENDCHAR
STARTCHAR guillemotleft
ENCODING 171
SWIDTH 689 0
DWIDTH 10 0
BBX 10 7 0 1
BITMAP
0055301671
2511644043
5035050520
7663096610
2512544052
0055301570
0001000100
ENDCHAR
STARTCHAR logicalnot
ENCODING 172
SWIDTH 591 0
DWIDTH 8 0
BBX 8 6 0 0
BITMAP
45567561
50004456
45555705
00000505
00000505
00000253
ENDCHAR
STARTCHAR uni00AD
ENCODING 173
SWIDTH 465 0
DWIDTH 7 0
BBX 7 3 0 3
BITMAP
45585700
50040420
35555500
ENDCHAR
STARTCHAR registered
ENCODING 174
SWIDTH 719 0
DWIDTH 10 0
BBX 10 12 0 -1
BITMAP
0110001000
16458576B2
5655656805
4150200405
6455755645
5055755505
4045500505
6455500645
5043400405
5077548665
2A66556461
0001000010
ENDCHAR
STARTCHAR macron
ENCODING 175
SWIDTH 263 0
DWIDTH 4 0
BBX 4 3 0 10
BITMAP
3342
5115
4553
ENDCHAR
STARTCHAR degree
ENCODING 176
SWIDTH 333 0
DWIDTH 5 0
BBX 5 5 0 5
BITMAP
033200
147500
638140
643730
255500
ENDCHAR
STARTCHAR plusminus
ENCODING 177
SWIDTH 464 0
DWIDTH 7 0
BBX 7 10 0 -2
BITMAP
00352000
00505000
45687700
50040320
35757600
00505000
00351000
55585700
50040410
25555500
ENDCHAR
STARTCHAR twosuperior
ENCODING 178
SWIDTH 324 0
DWIDTH 5 0
BBX 5 6 0 4
BITMAP
343400
412400
153700
234200
525420
274510
ENDCHAR
STARTCHAR threesuperior
ENCODING 179
SWIDTH 332 0
DWIDTH 5 0
BBX 5 6 0 4
BITMAP
343400
421620
167420
045120
436430
344400
ENDCHAR
STARTCHAR acute
ENCODING 180
SWIDTH 202 0
DWIDTH 3 0
BBX 3 4 0 10
BITMAP
0420
2360
6410
4300
ENDCHAR
STARTCHAR mu
ENCODING 181
SWIDTH 582 0
DWIDTH 8 0
BBX 8 12 0 -2
BITMAP
05511551
05052224
05141423
14232845
47441505
23320505
23410845
46575765
41443046
41546886
50420120
35610000
ENDCHAR
STARTCHAR paragraph
ENCODING 182
SWIDTH 556 0
DWIDTH 8 0
BBX 8 12 0 -1
BITMAP
00000200
00156570
35630082
50067650
66846562
34079051
01535050
00167562
00008060
00005050
00006261
00000310
ENDCHAR
STARTCHAR periodcentered
ENCODING 183
SWIDTH 215 0
DWIDTH 3 0
BBX 3 3 0 4
BITMAP
0300
5260
5550
ENDCHAR
STARTCHAR cedilla
ENCODING 184
SWIDTH 237 0
DWIDTH 3 0
BBX 4 5 0 -3
BITMAP
0010
0453
0423
5763
6550
ENDCHAR
STARTCHAR onesuperior
ENCODING 185
SWIDTH 286 0
DWIDTH 4 0
BBX 4 6 0 4
BITMAP
0252
4325
5434
1414
0304
0243
ENDCHAR
STARTCHAR ordmasculine
ENCODING 186
SWIDTH 476 0
DWIDTH 7 0
BBX 7 10 0 0
BITMAP
25575600
50054730
75665050
40504130
40657630
65552330
53565610
05443200
05022500
06445400
ENDCHAR
STARTCHAR guillemotright
ENCODING 187
SWIDTH 689 0
DWIDTH 10 0
BBX 10 7 0 1
BITMAP
3650065200
5115370351
0440516114
0366705664
4215261351
3560065300
0100001000
ENDCHAR
STARTCHAR onequarter
ENCODING 188
SWIDTH 790 0
DWIDTH 11 0
BBX 11 10 0 0
BITMAP
015303200000
341604410000
525413400000
034454400000
003440402200
005443113710
000076243340
000224506650
000504484550
000243002550
ENDCHAR
STARTCHAR onehalf
ENCODING 189
SWIDTH 771 0
DWIDTH 11 0
BBX 11 11 0 -1
BITMAP
015303200000
341604410000
525413400000
034454400000
003440520100
005443523510
000076345710
000224041400
000504325420
000243296340
000000010100
ENDCHAR
STARTCHAR threequarters
ENCODING 190
SWIDTH 817 0
DWIDTH 11 0
BBX 12 10 0 0
BITMAP
343401400000
412534050000
167424130000
045137510000
436453400400
344441404260
000054441531
000042444580
000134086471
000045000551
ENDCHAR
STARTCHAR questiondown
ENCODING 191
SWIDTH 455 0
DWIDTH 6 0
BBX 6 11 0 -1
BITMAP
000552
000514
000350
000762
002741
044082
772530
604654
556005
005556
000011
ENDCHAR
STARTCHAR Agrave
ENCODING 192
SWIDTH 507 0
DWIDTH 7 0
BBX 8 14 0 0
BITMAP
00540000
02450000
00532000
00150000
01661000
03228200
05051400
08560500
050A5600
24165760
55587214
50504563
50758050
65504561
ENDCHAR
STARTCHAR Aacute
ENCODING 193
SWIDTH 507 0
DWIDTH 7 0
BBX 8 14 0 0
BITMAP
00003300
00005500
00053300
00034000
01661000
03228200
05051400
08560500
050A5600
24165760
55587214
50504563
50758050
65504561
ENDCHAR
STARTCHAR Acircumflex
ENCODING 194
SWIDTH 507 0
DWIDTH 7 0
BBX 8 14 0 0
BITMAP
00467000
01545200
05163500
01504200
01661000
03228200
05051400
08560500
050A5600
24165760
55587214
50504563
50758050
65504561
ENDCHAR
STARTCHAR Atilde
ENCODING 195
SWIDTH 507 0
DWIDTH 7 0
BBX 8 14 0 0
BITMAP
00692650
05268230
15554700
03226200
01661000
03228200
05051400
08560500
050A5600
24165760
55587214
50504563
50758050
65504561
ENDCHAR
STARTCHAR Adieresis
ENCODING 196
SWIDTH 507 0
DWIDTH 7 0
BBX 8 13 0 0
BITMAP
04545500
05054500
02514300
01661000
03228200
05051400
08560500
050A5600
24165760
55587214
50504563
50758050
65504561
ENDCHAR
STARTCHAR Aring
ENCODING 197
SWIDTH 507 0
DWIDTH 7 0
BBX 8 14 0 0
BITMAP
00255000
00543300
05295500
02614600
01A95100
03228200
05051400
08560500
050A5600
24165760
55587214
50504563
50758050
65504561
ENDCHAR
STARTCHAR AE
ENCODING 198
SWIDTH 797 0
DWIDTH 11 0
BBX 13 10 -1 0
BITMAP
00002565675600
00006160550320
00024060865600
00085583500000
00141650856000
00705350515000
02656384743000
06056551875400
33050241550500
05630265755600
ENDCHAR
STARTCHAR Ccedilla
ENCODING 199
SWIDTH 515 0
DWIDTH 7 0
BBX 8 13 0 -3
BITMAP
06557550
05005042
07576570
18350000
14240000
33320000
54620000
50666570
60605033
39767660
03152300
00676300
00654000
ENDCHAR
STARTCHAR Egrave
ENCODING 200
SWIDTH 490 0
DWIDTH 7 0
BBX 7 14 0 0
BITMAP
00450000
00540000
00424000
00051000
26666550
32325050
32456550
65520000
41555400
41520500
55555100
41575530
50532050
55765540
ENDCHAR
STARTCHAR Eacute
ENCODING 201
SWIDTH 490 0
DWIDTH 7 0
BBX 7 14 0 0
BITMAP
00005100
00041500
00156000
00052000
26666550
32325050
32456550
65520000
41555400
41520500
55555100
41575530
50532050
55765540
ENDCHAR
STARTCHAR Ecircumflex
ENCODING 202
SWIDTH 490 0
DWIDTH 7 0
BBX 7 14 0 0
BITMAP
00467000
01555200
05162500
01504200
26666550
32325050
32456550
65520000
41555400
41520500
55555100
41575530
50532050
55765540
ENDCHAR
STARTCHAR Edieresis
ENCODING 203
SWIDTH 490 0
DWIDTH 7 0
BBX 7 13 0 0
BITMAP
04545500
05054500
03514300
26666550
32325050
32456550
65520000
41555400
41520500
55555100
41575530
50532050
55765540
ENDCHAR
STARTCHAR Igrave
ENCODING 204
SWIDTH 266 0
DWIDTH 4 0
BBX 4 14 0 0
BITMAP
4500
6400
4250
0510
2662
3232
3240
6552
4151
4150
5552
4150
5040
4561
ENDCHAR
STARTCHAR Iacute
ENCODING 205
SWIDTH 266 0
DWIDTH 4 0
BBX 5 14 0 0
BITMAP
002400
005410
052400
025000
266200
323200
324000
655200
415100
415000
555200
415000
504000
456100
ENDCHAR
STARTCHAR Icircumflex
ENCODING 206
SWIDTH 266 0
DWIDTH 4 0
BBX 5 14 0 0
BITMAP
079100
526500
555320
322400
266200
323200
324000
655200
415100
415000
555200
415000
504000
456100
ENDCHAR
STARTCHAR Idieresis
ENCODING 207
SWIDTH 266 0
DWIDTH 4 0
BBX 6 13 -1 0
BITMAP
254452
414523
153340
026620
032320
032400
065520
041510
041500
055520
041500
050400
045610
ENDCHAR
STARTCHAR Eth
ENCODING 208
SWIDTH 669 0
DWIDTH 9 0
BBX 11 12 -1 -1
BITMAP
000001100000
000186600000
000191061000
000236229000
010464940610
254566252050
243327237650
022584960620
000324326100
000414262000
000457710000
000002200000
ENDCHAR
STARTCHAR Ntilde
ENCODING 209
SWIDTH 598 0
DWIDTH 8 0
BBX 8 14 0 0
BITMAP
00169354
00525733
02455560
00423610
26650455
32370505
32425505
65566856
41513805
41560705
55585566
41515055
50406057
55614696
ENDCHAR
STARTCHAR Ograve
ENCODING 210
SWIDTH 612 0
DWIDTH 9 0
BBX 9 15 0 -1
BITMAP
0005400000
0015500000
0005230000
0000510000
0655757300
0500504700
0757667500
1835085600
1424050500
3332050500
5462065610
5065775A00
6060500830
3975658810
0310000000
ENDCHAR
STARTCHAR Oacute
ENCODING 211
SWIDTH 612 0
DWIDTH 9 0
BBX 9 15 0 -1
BITMAP
0000052000
0000326000
0000551000
0000420000
0655757300
0500504700
0757667500
1835085600
1424050500
3332050500
5462065610
5065775A00
6060500830
3975658810
0310000000
ENDCHAR
STARTCHAR Ocircumflex
ENCODING 212
SWIDTH 612 0
DWIDTH 9 0
BBX 9 15 0 -1
BITMAP
0005660000
0024551000
0052615000
0014052000
0655757300
0500504700
0757667500
1835085600
1424050500
3332050500
5462065610
5065775A00
6060500830
3975658810
0310000000
ENDCHAR
STARTCHAR Otilde
ENCODING 213
SWIDTH 612 0
DWIDTH 9 0
BBX 9 15 0 -1
BITMAP
0006926500
0052682400
0055537000
0032252000
0655757300
0500504700
0757667500
1835085600
1424050500
3332050500
5462065610
5065775A00
6060500830
3975658810
0310000000
ENDCHAR
STARTCHAR Odieresis
ENCODING 214
SWIDTH 612 0
DWIDTH 9 0
BBX 9 14 0 -1
BITMAP
0155354000
0054505000
0044242000
0655757300
0500504700
0757667500
1835085600
1424050500
3332050500
5462065610
5065775A00
6060500830
3975658810
0310000000
ENDCHAR
STARTCHAR multiply
ENCODING 215
SWIDTH 421 0
DWIDTH 6 0
BBX 6 6 0 2
BITMAP
011000
356563
601715
182580
517116
364661
ENDCHAR
STARTCHAR Oslash
ENCODING 216
SWIDTH 612 0
DWIDTH 9 0
BBX 9 11 0 -1
BITMAP
0655766300
0500550600
0757732700
1835846600
1418133500
3336090500
5487465610
5241975A00
7605500830
3418658810
0460000000
ENDCHAR
STARTCHAR Ugrave
ENCODING 217
SWIDTH 583 0
DWIDTH 8 0
BBX 8 15 0 -1
BITMAP
00262000
00505000
00055000
00033000
06531653
05051415
05140514
46441845
32410505
51500505
64610856
50665775
60614037
387568A6
04200000
ENDCHAR
STARTCHAR Uacute
ENCODING 218
SWIDTH 583 0
DWIDTH 8 0
BBX 8 15 0 -1
BITMAP
00003400
00005510
00053400
00024000
06531653
05051415
05140514
46441845
32410505
51500505
64610856
50665775
60614037
387568A6
04200000
ENDCHAR
STARTCHAR Ucircumflex
ENCODING 219
SWIDTH 583 0
DWIDTH 8 0
BBX 8 15 0 -1
BITMAP
00079100
00525400
01455410
00422400
06531653
05051415
05140514
46441845
32410505
51500505
64610856
50665775
60614037
387568A6
04200000
ENDCHAR
STARTCHAR Udieresis
ENCODING 220
SWIDTH 583 0
DWIDTH 8 0
BBX 8 14 0 -1
BITMAP
02554520
03245140
00533410
06531653
05051415
05140514
46441845
32410505
51500505
64610856
50665775
60614037
387568A6
04200000
ENDCHAR
STARTCHAR Yacute
ENCODING 221
SWIDTH 484 0
DWIDTH 7 0
BBX 9 13 -1 0
BITMAP
0000051000
0000515000
0002460000
0350535300
2433050610
1605350600
0264954300
0061506000
0008314000
0006461000
0024050000
0060410000
0035600000
ENDCHAR
STARTCHAR Thorn
ENCODING 222
SWIDTH 520 0
DWIDTH 7 0
BBX 8 11 0 -1
BITMAP
26510000
35740000
38038400
58515254
40556424
41436282
55574440
51516300
50461000
53610000
02100000
ENDCHAR
STARTCHAR germandbls
ENCODING 223
SWIDTH 884 0
DWIDTH 12 0
BBX 13 11 0 -1
BITMAP
25575715575710
75540556640330
60655461465400
14250005160000
08341006533000
01506000606100
00565200363500
23770623690520
61461572163330
64667453567500
11000002000000
ENDCHAR
STARTCHAR agrave
ENCODING 224
SWIDTH 507 0
DWIDTH 7 0
BBX 8 14 0 0
BITMAP
00540000
02450000
00532000
00150000
01661000
03228200
05051400
08560500
050A5600
24165760
55587214
50504563
50758050
65504561
ENDCHAR
STARTCHAR aacute
ENCODING 225
SWIDTH 507 0
DWIDTH 7 0
BBX 8 14 0 0
BITMAP
00003300
00005500
00053300
00034000
01661000
03228200
05051400
08560500
050A5600
24165760
55587214
50504563
50758050
65504561
ENDCHAR
STARTCHAR acircumflex
ENCODING 226
SWIDTH 507 0
DWIDTH 7 0
BBX 8 14 0 0
BITMAP
00467000
01545200
05163500
01504200
01661000
03228200
05051400
08560500
050A5600
24165760
55587214
50504563
50758050
65504561
ENDCHAR
STARTCHAR atilde
ENCODING 227
SWIDTH 507 0
DWIDTH 7 0
BBX 8 14 0 0
BITMAP
00692650
05268230
15554700
03226200
01661000
03228200
05051400
08560500
050A5600
24165760
55587214
50504563
50758050
65504561
ENDCHAR
STARTCHAR adieresis
ENCODING 228
SWIDTH 507 0
DWIDTH 7 0
BBX 8 13 0 0
BITMAP
04545500
05054500
02514300
01661000
03228200
05051400
08560500
050A5600
24165760
55587214
50504563
50758050
65504561
ENDCHAR
STARTCHAR aring
ENCODING 229
SWIDTH 507 0
DWIDTH 7 0
BBX 8 14 0 0
BITMAP
00255000
00543300
05295500
02614600
01A95100
03228200
05051400
08560500
050A5600
24165760
55587214
50504563
50758050
65504561
ENDCHAR
STARTCHAR ae
ENCODING 230
SWIDTH 797 0
DWIDTH 11 0
BBX 13 10 -1 0
BITMAP
00002565675600
00006160550320
00024060865600
00085583500000
00141650856000
00705350515000
02656384743000
06056551875400
33050241550500
05630265755600
ENDCHAR
STARTCHAR ccedilla
ENCODING 231
SWIDTH 515 0
DWIDTH 7 0
BBX 8 13 0 -3
BITMAP
06557550
05005042
07576570
18350000
14240000
33320000
54620000
50666570
60605033
39767660
03152300
00676300
00654000
ENDCHAR
STARTCHAR egrave
ENCODING 232
SWIDTH 490 0
DWIDTH 7 0
BBX 7 14 0 0
BITMAP
00450000
00540000
00424000
00051000
26666550
32325050
32456550
65520000
41555400
41520500
55555100
41575530
50532050
55765540
ENDCHAR
STARTCHAR eacute
ENCODING 233
SWIDTH 490 0
DWIDTH 7 0
BBX 7 14 0 0
BITMAP
00005100
00041500
00156000
00052000
26666550
32325050
32456550
65520000
41555400
41520500
55555100
41575530
50532050
55765540
ENDCHAR
STARTCHAR ecircumflex
ENCODING 234
SWIDTH 490 0
DWIDTH 7 0
BBX 7 14 0 0
BITMAP
00467000
01555200
05162500
01504200
26666550
32325050
32456550
65520000
41555400
41520500
55555100
41575530
50532050
55765540
ENDCHAR
STARTCHAR edieresis
ENCODING 235
SWIDTH 490 0
DWIDTH 7 0
BBX 7 13 0 0
BITMAP
04545500
05054500
03514300
26666550
32325050
32456550
65520000
41555400
41520500
55555100
41575530
50532050
55765540
ENDCHAR
STARTCHAR igrave
ENCODING 236
SWIDTH 266 0
DWIDTH 4 0
BBX 4 14 0 0
BITMAP
4500
6400
4250
0510
2662
3232
3240
6552
4151
4150
5552
4150
5040
4561
ENDCHAR
STARTCHAR iacute
ENCODING 237
SWIDTH 266 0
DWIDTH 4 0
BBX 5 14 0 0
BITMAP
002400
005410
052400
025000
266200
323200
324000
655200
415100
415000
555200
415000
504000
456100
ENDCHAR
STARTCHAR icircumflex
ENCODING 238
SWIDTH 266 0
DWIDTH 4 0
BBX 5 14 0 0
BITMAP
079100
526500
555320
322400
266200
323200
324000
655200
415100
415000
555200
415000
504000
456100
ENDCHAR
STARTCHAR idieresis
ENCODING 239
SWIDTH 266 0
DWIDTH 4 0
BBX 6 13 -1 0
BITMAP
254452
414523
153340
026620
032320
032400
065520
041510
041500
055520
041500
050400
045610
ENDCHAR
STARTCHAR eth
ENCODING 240
SWIDTH 669 0
DWIDTH 9 0
BBX 11 12 -1 -1
BITMAP
000001100000
000186600000
000191061000
000236229000
010464940610
254566252050
243327237650
022584960620
000324326100
000414262000
000457710000
000002200000
ENDCHAR
STARTCHAR ntilde
ENCODING 241
SWIDTH 598 0
DWIDTH 8 0
BBX 8 14 0 0
BITMAP
00169354
00525733
02455560
00423610
26650455
32370505
32425505
65566856
41513805
41560705
55585566
41515055
50406057
55614696
ENDCHAR
STARTCHAR ograve
ENCODING 242
SWIDTH 612 0
DWIDTH 9 0
BBX 9 15 0 -1
BITMAP
0005400000
0015500000
0005230000
0000510000
0655757300
0500504700
0757667500
1835085600
1424050500
3332050500
5462065610
5065775A00
6060500830
3975658810
0310000000
ENDCHAR
STARTCHAR oacute
ENCODING 243
SWIDTH 612 0
DWIDTH 9 0
BBX 9 15 0 -1
BITMAP
0000052000
0000326000
0000551000
0000420000
0655757300
0500504700
0757667500
1835085600
1424050500
3332050500
5462065610
5065775A00
6060500830
3975658810
0310000000
ENDCHAR
STARTCHAR ocircumflex
ENCODING 244
SWIDTH 612 0
DWIDTH 9 0
BBX 9 15 0 -1
BITMAP
0005660000
0024551000
0052615000
0014052000
0655757300
0500504700
0757667500
1835085600
1424050500
3332050500
5462065610
5065775A00
6060500830
3975658810
0310000000
ENDCHAR
STARTCHAR otilde
ENCODING 245
SWIDTH 612 0
DWIDTH 9 0
BBX 9 15 0 -1
BITMAP
0006926500
0052682400
0055537000
0032252000
0655757300
0500504700
0757667500
1835085600
1424050500
3332050500
5462065610
5065775A00
6060500830
3975658810
0310000000
ENDCHAR
STARTCHAR odieresis
ENCODING 246
SWIDTH 612 0
DWIDTH 9 0
BBX 9 14 0 -1
BITMAP
0155354000
0054505000
0044242000
0655757300
0500504700
0757667500
1835085600
1424050500
3332050500
5462065610
5065775A00
6060500830
3975658810
0310000000
ENDCHAR
STARTCHAR divide
ENCODING 247
SWIDTH 457 0
DWIDTH 6 0
BBX 7 9 0 0
BITMAP
00451000
00513000
00551000
55585700
50040410
35555500
00653000
00633000
00130000
ENDCHAR
STARTCHAR oslash
ENCODING 248
SWIDTH 612 0
DWIDTH 9 0
BBX 9 11 0 -1
BITMAP
0655766300
0500550600
0757732700
1835846600
1418133500
3336090500
5487465610
5241975A00
7605500830
3418658810
0460000000
ENDCHAR
STARTCHAR ugrave
ENCODING 249
SWIDTH 583 0
DWIDTH 8 0
BBX 8 15 0 -1
BITMAP
00262000
00505000
00055000
00033000
06531653
05051415
05140514
46441845
32410505
51500505
64610856
50665775
60614037
387568A6
04200000
ENDCHAR
STARTCHAR uacute
ENCODING 250
SWIDTH 583 0
DWIDTH 8 0
BBX 8 15 0 -1
BITMAP
00003400
00005510
00053400
00024000
06531653
05051415
05140514
46441845
32410505
51500505
64610856
50665775
60614037
387568A6
04200000
ENDCHAR
STARTCHAR ucircumflex
ENCODING 251
SWIDTH 583 0
DWIDTH 8 0
BBX 8 15 0 -1
BITMAP
00079100
00525400
01455410
00422400
06531653
05051415
05140514
46441845
32410505
51500505
64610856
50665775
60614037
387568A6
04200000
ENDCHAR
STARTCHAR udieresis
ENCODING 252
SWIDTH 583 0
DWIDTH 8 0
BBX 8 14 0 -1
BITMAP
02554520
03245140
00533410
06531653
05051415
05140514
46441845
32410505
51500505
64610856
50665775
60614037
387568A6
04200000
ENDCHAR
STARTCHAR yacute
ENCODING 253
SWIDTH 484 0
DWIDTH 7 0
BBX 9 13 -1 0
BITMAP
0000051000
0000515000
0002460000
0350535300
2433050610
1605350600
0264954300
0061506000
0008314000
0006461000
0024050000
0060410000
0035600000
ENDCHAR
STARTCHAR thorn
ENCODING 254
SWIDTH 520 0
DWIDTH 7 0
BBX 8 11 0 -1
BITMAP
26510000
35740000
38038400
58515254
40556424
41436282
55574440
51516300
50461000
53610000
02100000
ENDCHAR
STARTCHAR ydieresis
ENCODING 255
SWIDTH 484 0
DWIDTH 7 0
BBX 9 12 -1 0
BITMAP
0055354000
0053515000
0385178300
2433050610
1605350600
0264954300
0061506000
0008314000
0006461000
0024050000
0060410000
0035600000
ENDCHAR
STARTCHAR Amacron
ENCODING 256
SWIDTH 507 0
DWIDTH 7 0
BBX 8 13 0 0
BITMAP
00434000
03211400
00555100
01661000
03228200
05051400
08560500
050A5600
24165760
55587214
50504563
50758050
65504561
ENDCHAR
STARTCHAR amacron
ENCODING 257
SWIDTH 507 0
DWIDTH 7 0
BBX 8 13 0 0
BITMAP
00434000
03211400
00555100
01661000
03228200
05051400
08560500
050A5600
24165760
55587214
50504563
50758050
65504561
ENDCHAR
STARTCHAR Abreve
ENCODING 258
SWIDTH 507 0
DWIDTH 7 0
BBX 8 14 0 0
BITMAP
05606400
05436500
05446400
00455000
01661000
03228200
05051400
08560500
050A5600
24165760
55587214
50504563
50758050
65504561
ENDCHAR
STARTCHAR abreve
ENCODING 259
SWIDTH 507 0
DWIDTH 7 0
BBX 8 14 0 0
BITMAP
05606400
05436500
05446400
00455000
01661000
03228200
05051400
08560500
050A5600
24165760
55587214
50504563
50758050
65504561
ENDCHAR
STARTCHAR Aogonek
ENCODING 260
SWIDTH 507 0
DWIDTH 7 0
BBX 8 13 0 -3
BITMAP
01661000
03228200
05051400
08560500
050A5600
24165760
55587214
50504563
50758050
65505681
00005250
00003843
00000363
ENDCHAR
STARTCHAR aogonek
ENCODING 261
SWIDTH 507 0
DWIDTH 7 0
BBX 8 13 0 -3
BITMAP
01661000
03228200
05051400
08560500
050A5600
24165760
55587214
50504563
50758050
65505681
00005250
00003843
00000363
ENDCHAR
STARTCHAR Cacute
ENCODING 262
SWIDTH 515 0
DWIDTH 7 0
BBX 8 15 0 -1
BITMAP
00002500
00005330
00042500
00015000
06557550
05005042
07576570
18350000
14240000
33320000
54620000
50666570
60605033
39756560
03100000
ENDCHAR
STARTCHAR cacute
ENCODING 263
SWIDTH 515 0
DWIDTH 7 0
BBX 8 15 0 -1
BITMAP
00002500
00005330
00042500
00015000
06557550
05005042
07576570
18350000
14240000
33320000
54620000
50666570
60605033
39756560
03100000
ENDCHAR
STARTCHAR Ccircumflex
ENCODING 264
SWIDTH 515 0
DWIDTH 7 0
BBX 8 15 0 -1
BITMAP
00057500
00236500
00536150
00240510
06557550
05005042
07576570
18350000
14240000
33320000
54620000
50666570
60605033
39756560
03100000
ENDCHAR
STARTCHAR ccircumflex
ENCODING 265
SWIDTH 515 0
DWIDTH 7 0
BBX 8 15 0 -1
BITMAP
00057500
00236500
00536150
00240510
06557550
05005042
07576570
18350000
14240000
33320000
54620000
50666570
60605033
39756560
03100000
ENDCHAR
STARTCHAR Cdotaccent
ENCODING 266
SWIDTH 515 0
DWIDTH 7 0
BBX 8 14 0 -1
BITMAP
00045300
00051400
00035100
06557550
05005042
07576570
18350000
14240000
33320000
54620000
50666570
60605033
39756560
03100000
ENDCHAR
STARTCHAR cdotaccent
ENCODING 267
SWIDTH 515 0
DWIDTH 7 0
BBX 8 14 0 -1
BITMAP
00045300
00051400
00035100
06557550
05005042
07576570
18350000
14240000
33320000
54620000
50666570
60605033
39756560
03100000
ENDCHAR
STARTCHAR Ccaron
ENCODING 268
SWIDTH 515 0
DWIDTH 7 0
BBX 8 16 0 -1
BITMAP
00010100
00664540
00427420
00056500
00035000
06557550
05005042
07576570
18350000
14240000
33320000
54620000
50666570
60605033
39756560
03100000
ENDCHAR
STARTCHAR ccaron
ENCODING 269
SWIDTH 515 0
DWIDTH 7 0
BBX 8 16 0 -1
BITMAP
00010100
00664540
00427420
00056500
00035000
06557550
05005042
07576570
18350000
14240000
33320000
54620000
50666570
60605033
39756560
03100000
ENDCHAR
STARTCHAR Dcaron
ENCODING 270
SWIDTH 520 0
DWIDTH 7 0
BBX 8 16 0 -1
BITMAP
00101000
05446600
02472400
00538000
00262000
28560000
38016100
32713800
65583161
41515215
41504765
55585061
41523600
50516100
55771000
00220000
ENDCHAR
STARTCHAR dcaron
ENCODING 271
SWIDTH 520 0
DWIDTH 7 0
BBX 8 16 0 -1
BITMAP
00101000
05446600
02472400
00538000
00262000
28560000
38016100
32713800
65583161
41515215
41504765
55585061
41523600
50516100
55771000
00220000
ENDCHAR
STARTCHAR Dcroat
ENCODING 272
SWIDTH 669 0
DWIDTH 9 0
BBX 11 12 -1 -1
BITMAP
000001100000
000186600000
000191061000
000236229000
010464940610
254566252050
243327237650
022584960620
000324326100
000414262000
000457710000
000002200000
ENDCHAR
STARTCHAR dcroat
ENCODING 273
SWIDTH 669 0
DWIDTH 9 0
BBX 11 12 -1 -1
BITMAP
000001100000
000186600000
000191061000
000236229000
010464940610
254566252050
243327237650
022584960620
000324326100
000414262000
000457710000
000002200000
ENDCHAR
STARTCHAR Emacron
ENCODING 274
SWIDTH 490 0
DWIDTH 7 0
BBX 7 13 0 0
BITMAP
00434000
04111400
01555100
26666550
32325050
32456550
65520000
41555400
41520500
55555100
41575530
50532050
55765540
ENDCHAR
STARTCHAR emacron
ENCODING 275
SWIDTH 490 0
DWIDTH 7 0
BBX 7 13 0 0
BITMAP
00434000
04111400
01555100
26666550
32325050
32456550
65520000
41555400
41520500
55555100
41575530
50532050
55765540
ENDCHAR
STARTCHAR Ebreve
ENCODING 276
SWIDTH 490 0
DWIDTH 7 0
BBX 7 14 0 0
BITMAP
04525500
04157500
02564700
00355000
26666550
32325050
32456550
65520000
41555400
41520500
55555100
41575530
50532050
55765540
ENDCHAR
STARTCHAR ebreve
ENCODING 277
SWIDTH 490 0
DWIDTH 7 0
BBX 7 14 0 0
BITMAP
04525500
04157500
02564700
00355000
26666550
32325050
32456550
65520000
41555400
41520500
55555100
41575530
50532050
55765540
ENDCHAR
STARTCHAR Edotaccent
ENCODING 278
SWIDTH 490 0
DWIDTH 7 0
BBX 7 13 0 0
BITMAP
00453000
00504000
00252000
26666550
32325050
32456550
65520000
41555400
41520500
55555100
41575530
50532050
55765540
ENDCHAR
STARTCHAR edotaccent
ENCODING 279
SWIDTH 490 0
DWIDTH 7 0
BBX 7 13 0 0
BITMAP
00453000
00504000
00252000
26666550
32325050
32456550
65520000
41555400
41520500
55555100
41575530
50532050
55765540
ENDCHAR
STARTCHAR Eogonek
ENCODING 280
SWIDTH 490 0
DWIDTH 7 0
BBX 7 13 0 -3
BITMAP
26666550
32325050
32456550
65520000
41555400
41520500
55555100
41575530
50532050
55766640
00041600
00029350
00001640
ENDCHAR
STARTCHAR eogonek
ENCODING 281
SWIDTH 490 0
DWIDTH 7 0
BBX 7 13 0 -3
BITMAP
26666550
32325050
32456550
65520000
41555400
41520500
55555100
41575530
50532050
55766640
00041600
00029350
00001640
ENDCHAR
STARTCHAR Ecaron
ENCODING 282
SWIDTH 490 0
DWIDTH 7 0
BBX 7 15 0 0
BITMAP
00101000
04446600
01562500
0051A000
00153000
26666550
32325050
32456550
65520000
41555400
41520500
55555100
41575530
50532050
55765540
ENDCHAR
STARTCHAR ecaron
ENCODING 283
SWIDTH 490 0
DWIDTH 7 0
BBX 7 15 0 0
BITMAP
00101000
04446600
01562500
0051A000
00153000
26666550
32325050
32456550
65520000
41555400
41520500
55555100
41575530
50532050
55765540
ENDCHAR
STARTCHAR Gcircumflex
ENCODING 284
SWIDTH 557 0
DWIDTH 8 0
BBX 8 15 0 -1
BITMAP
00068300
00426500
00546140
00331500
06557550
05005042
07576570
18350000
14241552
33320514
54620735
50666705
60605505
39756754
03100000
ENDCHAR
STARTCHAR gcircumflex
ENCODING 285
SWIDTH 557 0
DWIDTH 8 0
BBX 8 15 0 -1
BITMAP
00068300
00426500
00546140
00331500
06557550
05005042
07576570
18350000
14241552
33320514
54620735
50666705
60605505
39756754
03100000
ENDCHAR
STARTCHAR Gbreve
ENCODING 286
SWIDTH 557 0
DWIDTH 8 0
BBX 8 15 0 -1
BITMAP
01642530
00557330
00662900
00155300
06557550
05005042
07576570
18350000
14241552
33320514
54620735
50666705
60605505
39756754
03100000
ENDCHAR
STARTCHAR gbreve
ENCODING 287
SWIDTH 557 0
DWIDTH 8 0
BBX 8 15 0 -1
BITMAP
01642530
00557330
00662900
00155300
06557550
05005042
07576570
18350000
14241552
33320514
54620735
50666705
60605505
39756754
03100000
ENDCHAR
STARTCHAR Gdotaccent
ENCODING 288
SWIDTH 557 0
DWIDTH 8 0
BBX 8 14 0 -1
BITMAP
00045300
00050400
00035100
06557550
05005042
07576570
18350000
14241552
33320514
54620735
50666705
60605505
39756754
03100000
ENDCHAR
STARTCHAR gdotaccent
ENCODING 289
SWIDTH 557 0
DWIDTH 8 0
BBX 8 14 0 -1
BITMAP
00045300
00050400
00035100
06557550
05005042
07576570
18350000
14241552
33320514
54620735
50666705
60605505
39756754
03100000
ENDCHAR
STARTCHAR Gcommaaccent
ENCODING 290
SWIDTH 557 0
DWIDTH 8 0
BBX 8 14 0 -4
BITMAP
06557550
05005042
07576570
18350000
14241552
33320514
54620735
50666705
60605505
39756754
03143000
00146000
00642000
00330000
ENDCHAR
STARTCHAR gcommaaccent
ENCODING 291
SWIDTH 557 0
DWIDTH 8 0
BBX 8 14 0 -4
BITMAP
06557550
05005042
07576570
18350000
14241552
33320514
54620735
50666705
60605505
39756754
03143000
00146000
00642000
00330000
ENDCHAR
STARTCHAR Hcircumflex
ENCODING 292
SWIDTH 611 0
DWIDTH 9 0
BBX 9 14 0 0
BITMAP
0006830000
0032650000
0054614000
0033151000
2662065500
3232050500
3240060500
6552085600
4150050800
4152395250
5559231350
4155575600
5054050500
4561065500
ENDCHAR
STARTCHAR hcircumflex
ENCODING 293
SWIDTH 611 0
DWIDTH 9 0
BBX 9 14 0 0
BITMAP
0006830000
0032650000
0054614000
0033151000
2662065500
3232050500
3240060500
6552085600
4150050800
4152395250
5559231350
4155575600
5054050500
4561065500
ENDCHAR
STARTCHAR Hbar
ENCODING 294
SWIDTH 706 0
DWIDTH 10 0
BBX 10 10 0 0
BITMAP
0356116540
0704006050
5707658556
5756234225
17063283A3
0506139534
0657824134
0506557460
0506314050
0557026540
ENDCHAR
STARTCHAR hbar
ENCODING 295
SWIDTH 706 0
DWIDTH 10 0
BBX 10 10 0 0
BITMAP
0356116540
0704006050
5707658556
5756234225
17063283A3
0506139534
0657824134
0506557460
0506314050
0557026540
ENDCHAR
STARTCHAR Itilde
ENCODING 296
SWIDTH 266 0
DWIDTH 4 0
BBX 6 14 -1 0
BITMAP
056566
236636
537191
240550
026620
032320
032400
065520
041510
041500
055520
041500
050400
045610
ENDCHAR
STARTCHAR itilde
ENCODING 297
SWIDTH 266 0
DWIDTH 4 0
BBX 6 14 -1 0
BITMAP
056566
236636
537191
240550
026620
032320
032400
065520
041510
041500
055520
041500
050400
045610
ENDCHAR
STARTCHAR Imacron
ENCODING 298
SWIDTH 266 0
DWIDTH 4 0
BBX 4 13 0 0
BITMAP
2432
5115
3553
2662
3232
3240
6552
4151
4150
5552
4150
5040
4561
ENDCHAR
STARTCHAR imacron
ENCODING 299
SWIDTH 266 0
DWIDTH 4 0
BBX 4 13 0 0
BITMAP
2432
5115
3553
2662
3232
3240
6552
4151
4150
5552
4150
5040
4561
ENDCHAR
STARTCHAR Ibreve
ENCODING 300
SWIDTH 266 0
DWIDTH 4 0
BBX 6 14 -1 0
BITMAP
254352
145742
066290
025520
026620
032320
032400
065520
041510
041500
055520
041500
050400
045610
ENDCHAR
STARTCHAR ibreve
ENCODING 301
SWIDTH 266 0
DWIDTH 4 0
BBX 6 14 -1 0
BITMAP
254352
145742
066290
025520
026620
032320
032400
065520
041510
041500
055520
041500
050400
045610
ENDCHAR
STARTCHAR Iogonek
ENCODING 302
SWIDTH 266 0
DWIDTH 4 0
BBX 4 14 0 -4
BITMAP
2662
3232
3240
6552
4151
4150
5552
4150
5040
5571
5240
6751
1633
0030
ENDCHAR
STARTCHAR iogonek
ENCODING 303
SWIDTH 266 0
DWIDTH 4 0
BBX 4 14 0 -4
BITMAP
2662
3232
3240
6552
4151
4150
5552
4150
5040
5571
5240
6751
1633
0030
ENDCHAR
STARTCHAR Idotaccent
ENCODING 304
SWIDTH 266 0
DWIDTH 4 0
BBX 4 13 0 0
BITMAP
1550
1440
0540
2662
3232
3240
6552
4151
4150
5552
4150
5040
4561
ENDCHAR
STARTCHAR dotlessi
ENCODING 305
SWIDTH 266 0
DWIDTH 4 0
BBX 4 10 0 0
BITMAP
2662
3232
3240
6552
4151
4150
5552
4150
5040
4561
ENDCHAR
STARTCHAR IJ
ENCODING 306
SWIDTH 750 0
DWIDTH 11 0
BBX 10 11 0 -1
BITMAP
2662000456
3232000505
3240000505
6552000756
4151010506
4152660505
5557216757
4150543A05
5040080345
4561015197
0000003410
ENDCHAR
STARTCHAR ij
ENCODING 307
SWIDTH 749 0
DWIDTH 10 0
BBX 10 11 0 -1
BITMAP
2662000456
3232000505
3240000505
6552000756
4151010506
4152660505
5557216757
4150543A05
5040080345
4561015197
0000003410
ENDCHAR
STARTCHAR Jcircumflex
ENCODING 308
SWIDTH 484 0
DWIDTH 7 0
BBX 9 15 -1 -1
BITMAP
0000179000
0000525400
0001455410
0000422400
0000165200
0000231300
0000243200
0000464400
0010324200
0661334200
2506664400
0354924100
0072164100
0006096200
0002510000
ENDCHAR
STARTCHAR jcircumflex
ENCODING 309
SWIDTH 482 0
DWIDTH 7 0
BBX 9 15 -1 -1
BITMAP
0000179000
0000525400
0001455410
0000422400
0000165200
0000231300
0000243200
0000464400
0010324200
0661334200
2506664400
0354924100
0072164100
0006096200
0002510000
ENDCHAR
STARTCHAR Kcommaaccent
ENCODING 310
SWIDTH 541 0
DWIDTH 8 0
BBX 8 14 0 -4
BITMAP
26620350
32320615
32428035
65583450
41531600
41536600
55585530
41548050
50505042
55613561
00042100
00326000
00651000
00420000
ENDCHAR
STARTCHAR kcommaaccent
ENCODING 311
SWIDTH 541 0
DWIDTH 8 0
BBX 8 14 0 -4
BITMAP
26620350
32320615
32428035
65583450
41531600
41536600
55585530
41548050
50505042
55613561
00042100
00326000
00651000
00420000
ENDCHAR
STARTCHAR kgreenlandic
ENCODING 312
SWIDTH 541 0
DWIDTH 8 0
BBX 8 11 0 -1
BITMAP
26620350
32320615
32428035
65583450
41531600
41536600
55585530
41548050
50505042
55613561
00000100
ENDCHAR
STARTCHAR Lacute
ENCODING 313
SWIDTH 467 0
DWIDTH 7 0
BBX 7 14 0 0
BITMAP
00051000
00415000
01460000
00510000
26620000
32320000
32400000
65520000
41510000
41500000
55520000
41575440
50450050
45675560
ENDCHAR
STARTCHAR lacute
ENCODING 314
SWIDTH 467 0
DWIDTH 7 0
BBX 7 14 0 0
BITMAP
00051000
00415000
01460000
00510000
26620000
32320000
32400000
65520000
41510000
41500000
55520000
41575440
50450050
45675560
ENDCHAR
STARTCHAR Lcommaaccent
ENCODING 315
SWIDTH 467 0
DWIDTH 7 0
BBX 7 14 0 -4
BITMAP
26620000
32320000
32400000
65520000
41510000
41500000
55520000
41575440
50450050
45675560
00240000
00542000
05240000
02500000
ENDCHAR
STARTCHAR lcommaaccent
ENCODING 316
SWIDTH 467 0
DWIDTH 7 0
BBX 7 14 0 -4
BITMAP
26620000
32320000
32400000
65520000
41510000
41500000
55520000
41575440
50450050
45675560
00240000
00542000
05240000
02500000
ENDCHAR
STARTCHAR Lcaron
ENCODING 317
SWIDTH 467 0
DWIDTH 7 0
BBX 7 11 0 0
BITMAP
00003510
26625320
32364400
32413000
65520000
41510000
41500000
55520000
41575440
50450050
45675560
ENDCHAR
STARTCHAR lcaron
ENCODING 318
SWIDTH 467 0
DWIDTH 7 0
BBX 7 11 0 0
BITMAP
00003510
26625320
32364400
32413000
65520000
41510000
41500000
55520000
41575440
50450050
45675560
ENDCHAR
STARTCHAR Ldot
ENCODING 319
SWIDTH 611 0
DWIDTH 9 0
BBX 9 10 0 0
BITMAP
2662000000
3232000000
3240000000
6552002200
4151006510
4150007700
5552000000
4157544000
5045005000
4567556000
ENDCHAR
STARTCHAR ldotaccent
ENCODING 320
SWIDTH 611 0
DWIDTH 9 0
BBX 9 10 0 0
BITMAP
2662000000
3232000000
3240000000
6552002200
4151006510
4150007700
5552000000
4157544000
5045005000
4567556000
ENDCHAR
STARTCHAR Lslash
ENCODING 321
SWIDTH 505 0
DWIDTH 7 0
BBX 9 10 -1 0
BITMAP
0055500000
0050500000
0050500000
0084640000
1660652000
3350661000
0594500000
0050865600
0050550320
0075865600
ENDCHAR
STARTCHAR lslash
ENCODING 322
SWIDTH 505 0
DWIDTH 7 0
BBX 9 10 -1 0
BITMAP
0055500000
0050500000
0050500000
0084640000
1660652000
3350661000
0594500000
0050865600
0050550320
0075865600
ENDCHAR
STARTCHAR Nacute
ENCODING 323
SWIDTH 598 0
DWIDTH 8 0
BBX 8 13 0 0
BITMAP
00001500
00005140
00033600
26665555
32370505
32425505
65566856
41513805
41560705
55585566
41515055
50406057
55614696
ENDCHAR
STARTCHAR nacute
ENCODING 324
SWIDTH 598 0
DWIDTH 8 0
BBX 8 13 0 0
BITMAP
00001500
00005140
00033600
26665555
32370505
32425505
65566856
41513805
41560705
55585566
41515055
50406057
55614696
ENDCHAR
STARTCHAR Ncommaaccent
ENCODING 325
SWIDTH 598 0
DWIDTH 8 0
BBX 8 14 0 -4
BITMAP
26650455
32370505
32425505
65566856
41513805
41560705
55585566
41515055
50406057
55614696
00034000
00055100
00534000
00240000
ENDCHAR
STARTCHAR ncommaaccent
ENCODING 326
SWIDTH 598 0
DWIDTH 8 0
BBX 8 14 0 -4
BITMAP
26650455
32370505
32425505
65566856
41513805
41560705
55585566
41515055
50406057
55614696
00034000
00055100
00534000
00240000
ENDCHAR
STARTCHAR Ncaron
ENCODING 327
SWIDTH 598 0
DWIDTH 8 0
BBX 8 15 0 0
BITMAP
00010100
00663540
00427320
00056500
00035100
26650455
32370505
32425505
65566856
41513805
41560705
55585566
41515055
50406057
55614696
ENDCHAR
STARTCHAR ncaron
ENCODING 328
SWIDTH 598 0
DWIDTH 8 0
BBX 8 15 0 0
BITMAP
00010100
00663540
00427320
00056500
00035100
26650455
32370505
32425505
65566856
41513805
41560705
55585566
41515055
50406057
55614696
ENDCHAR
STARTCHAR napostrophe
ENCODING 329
SWIDTH 807 0
DWIDTH 11 0
BBX 11 10 0 0
BITMAP
064356505550
425414605050
650415345050
210656568560
000505047050
000506507050
000656855560
000505240550
000505060660
000557147960
ENDCHAR
STARTCHAR Eng
ENCODING 330
SWIDTH 595 0
DWIDTH 8 0
BBX 8 14 0 -4
BITMAP
26650364
42380606
32435505
65566505
51513A56
51460705
65585425
50525076
50416057
55614655
00036865
05525045
05026550
01630000
ENDCHAR
STARTCHAR eng
ENCODING 331
SWIDTH 595 0
DWIDTH 8 0
BBX 8 14 0 -4
BITMAP
26650364
42380606
32435505
65566505
51513A56
51460705
65585425
50525076
50416057
55614655
00036865
05525045
05026550
01630000
ENDCHAR
STARTCHAR Omacron
ENCODING 332
SWIDTH 612 0
DWIDTH 9 0
BBX 9 14 0 -1
BITMAP
0004340000
0051123000
0015550000
0655757300
0500504700
0757667500
1835085600
1424050500
3332050500
5462065610
5065775A00
6060500830
3975658810
0310000000
ENDCHAR
STARTCHAR omacron
ENCODING 333
SWIDTH 612 0
DWIDTH 9 0
BBX 9 14 0 -1
BITMAP
0004340000
0051123000
0015550000
0655757300
0500504700
0757667500
1835085600
1424050500
3332050500
5462065610
5065775A00
6060500830
3975658810
0310000000
ENDCHAR
STARTCHAR Obreve
ENCODING 334
SWIDTH 612 0
DWIDTH 9 0
BBX 9 15 0 -1
BITMAP
0056064000
0054455000
0055373000
0005540000
0655757300
0500504700
0757667500
1835085600
1424050500
3332050500
5462065610
5065775A00
6060500830
3975658810
0310000000
ENDCHAR
STARTCHAR obreve
ENCODING 335
SWIDTH 612 0
DWIDTH 9 0
BBX 9 15 0 -1
BITMAP
0056064000
0054455000
0055373000
0005540000
0655757300
0500504700
0757667500
1835085600
1424050500
3332050500
5462065610
5065775A00
6060500830
3975658810
0310000000
ENDCHAR
STARTCHAR Ohungarumlaut
ENCODING 336
SWIDTH 612 0
DWIDTH 9 0
BBX 9 15 0 -1
BITMAP
0000514200
0005183600
0014665100
0005143000
0655757300
0500504700
0757667500
1835085600
1424050500
3332050500
5462065610
5065775A00
6060500830
3975658810
0310000000
ENDCHAR
STARTCHAR ohungarumlaut
ENCODING 337
SWIDTH 612 0
DWIDTH 9 0
BBX 9 15 0 -1
BITMAP
0000514200
0005183600
0014665100
0005143000
0655757300
0500504700
0757667500
1835085600
1424050500
3332050500
5462065610
5065775A00
6060500830
3975658810
0310000000
ENDCHAR
STARTCHAR OE
ENCODING 338
SWIDTH 831 0
DWIDTH 12 0
BBX 12 11 0 -1
BITMAP
065577A67553
050050473105
075766775554
183507560000
142405065620
333205051230
546207573500
506567667551
606050565005
397568A75562
031000100000
ENDCHAR
STARTCHAR oe
ENCODING 339
SWIDTH 831 0
DWIDTH 12 0
BBX 12 11 0 -1
BITMAP
065577A67553
050050473105
075766775554
183507560000
142405065620
333205051230
546207573500
506567667551
606050565005
397568A75562
031000100000
ENDCHAR
STARTCHAR Racute
ENCODING 340
SWIDTH 532 0
DWIDTH 7 0
BBX 8 15 0 -1
BITMAP
00003400
00005410
00053400
00125000
18554000
47006651
35754015
55528672
50586271
41562800
55682330
50548350
50504224
62510643
03200110
ENDCHAR
STARTCHAR racute
ENCODING 341
SWIDTH 532 0
DWIDTH 7 0
BBX 8 15 0 -1
BITMAP
00003400
00005410
00053400
00125000
18554000
47006651
35754015
55528672
50586271
41562800
55682330
50548350
50504224
62510643
03200110
ENDCHAR
STARTCHAR Rcommaaccent
ENCODING 342
SWIDTH 532 0
DWIDTH 7 0
BBX 8 15 0 -4
BITMAP
00100000
18554000
47006651
35754015
55528672
50586271
41562800
55682330
50548350
50504224
62510643
03251110
00425000
01551000
00520000
ENDCHAR
STARTCHAR rcommaaccent
ENCODING 343
SWIDTH 532 0
DWIDTH 7 0
BBX 8 15 0 -4
BITMAP
00100000
18554000
47006651
35754015
55528672
50586271
41562800
55682330
50548350
50504224
62510643
03251110
00425000
01551000
00520000
ENDCHAR
STARTCHAR Rcaron
ENCODING 344
SWIDTH 532 0
DWIDTH 7 0
BBX 8 16 0 -1
BITMAP
00100000
02556600
00543600
0041A100
00153000
18554000
47006651
35754015
55528672
50586271
41562800
55682330
50548350
50504224
62510643
03200110
ENDCHAR
STARTCHAR rcaron
ENCODING 345
SWIDTH 532 0
DWIDTH 7 0
BBX 8 16 0 -1
BITMAP
00100000
02556600
00543600
0041A100
00153000
18554000
47006651
35754015
55528672
50586271
41562800
55682330
50548350
50504224
62510643
03200110
ENDCHAR
STARTCHAR Sacute
ENCODING 346
SWIDTH 442 0
DWIDTH 6 0
BBX 7 15 0 -1
BITMAP
00033000
00155000
00533000
00340000
25575700
75540500
60655400
14250000
08341000
01506000
00565200
23770610
61461510
64667400
11000000
ENDCHAR
STARTCHAR sacute
ENCODING 347
SWIDTH 442 0
DWIDTH 6 0
BBX 7 15 0 -1
BITMAP
00033000
00155000
00533000
00340000
25575700
75540500
60655400
14250000
08341000
01506000
00565200
23770610
61461510
64667400
11000000
ENDCHAR
STARTCHAR Scircumflex
ENCODING 348
SWIDTH 442 0
DWIDTH 6 0
BBX 7 15 0 -1
BITMAP
00691000
05265000
05552300
03224000
25575700
75540500
60655400
14250000
08341000
01506000
00565200
23770610
61461510
64667400
11000000
ENDCHAR
STARTCHAR scircumflex
ENCODING 349
SWIDTH 442 0
DWIDTH 6 0
BBX 7 15 0 -1
BITMAP
00691000
05265000
05552300
03224000
25575700
75540500
60655400
14250000
08341000
01506000
00565200
23770610
61461510
64667400
11000000
ENDCHAR
STARTCHAR Scedilla
ENCODING 350
SWIDTH 442 0
DWIDTH 6 0
BBX 7 13 0 -3
BITMAP
25575700
75540500
60655400
14250000
08341000
01506000
00565200
23770610
61461510
64669400
11235000
05565000
04540000
ENDCHAR
STARTCHAR scedilla
ENCODING 351
SWIDTH 442 0
DWIDTH 6 0
BBX 7 13 0 -3
BITMAP
25575700
75540500
60655400
14250000
08341000
01506000
00565200
23770610
61461510
64669400
11235000
05565000
04540000
ENDCHAR
STARTCHAR Scaron
ENCODING 352
SWIDTH 442 0
DWIDTH 6 0
BBX 7 16 0 -1
BITMAP
01001000
07555200
05255100
02383000
00440000
25575700
75540500
60655400
14250000
08341000
01506000
00565200
23770610
61461510
64667400
11000000
ENDCHAR
STARTCHAR scaron
ENCODING 353
SWIDTH 442 0
DWIDTH 6 0
BBX 7 16 0 -1
BITMAP
01001000
07555200
05255100
02383000
00440000
25575700
75540500
60655400
14250000
08341000
01506000
00565200
23770610
61461510
64667400
11000000
ENDCHAR
STARTCHAR Tcommaaccent
ENCODING 354
SWIDTH 453 0
DWIDTH 6 0
BBX 8 14 -1 -4
BITMAP
06558563
14004005
05585851
00083500
00150500
00050500
00184500
00050500
00140400
00265400
00042000
00236000
00651000
00430000
ENDCHAR
STARTCHAR tcommaaccent
ENCODING 355
SWIDTH 453 0
DWIDTH 6 0
BBX 8 14 -1 -4
BITMAP
06558563
14004005
05585851
00083500
00150500
00050500
00184500
00050500
00140400
00265400
00042000
00236000
00651000
00430000
ENDCHAR
STARTCHAR Tcaron
ENCODING 356
SWIDTH 453 0
DWIDTH 6 0
BBX 8 15 -1 0
BITMAP
00010100
00664540
00427420
00056500
00035000
06558563
14004005
05585851
00083500
00150500
00050500
00184500
00050500
00140400
00265400
ENDCHAR
STARTCHAR tcaron
ENCODING 357
SWIDTH 453 0
DWIDTH 6 0
BBX 8 15 -1 0
BITMAP
00010100
00664540
00427420
00056500
00035000
06558563
14004005
05585851
00083500
00150500
00050500
00184500
00050500
00140400
00265400
ENDCHAR
STARTCHAR Tbar
ENCODING 358
SWIDTH 455 0
DWIDTH 6 0
BBX 8 11 -1 -1
BITMAP
06557552
14005005
06565752
00072500
00695810
05001150
02676540
00050500
00050500
00253500
00012000
ENDCHAR
STARTCHAR tbar
ENCODING 359
SWIDTH 455 0
DWIDTH 6 0
BBX 8 11 -1 -1
BITMAP
06557552
14005005
06565752
00072500
00695810
05001150
02676540
00050500
00050500
00253500
00012000
ENDCHAR
STARTCHAR Utilde
ENCODING 360
SWIDTH 583 0
DWIDTH 8 0
BBX 8 15 0 -1
BITMAP
00169354
00525833
01455460
00423620
06531653
05051415
05140514
46441845
32410505
51500505
64610856
50665775
60614037
387568A6
04200000
ENDCHAR
STARTCHAR utilde
ENCODING 361
SWIDTH 583 0
DWIDTH 8 0
BBX 8 15 0 -1
BITMAP
00169354
00525833
01455460
00423620
06531653
05051415
05140514
46441845
32410505
51500505
64610856
50665775
60614037
387568A6
04200000
ENDCHAR
STARTCHAR Umacron
ENCODING 362
SWIDTH 583 0
DWIDTH 8 0
BBX 8 14 0 -1
BITMAP
00143300
00511500
00255400
06531653
05051415
05140514
46441845
32410505
51500505
64610856
50665775
60614037
387568A6
04200000
ENDCHAR
STARTCHAR umacron
ENCODING 363
SWIDTH 583 0
DWIDTH 8 0
BBX 8 14 0 -1
BITMAP
00143300
00511500
00255400
06531653
05051415
05140514
46441845
32410505
51500505
64610856
50665775
60614037
387568A6
04200000
ENDCHAR
STARTCHAR Ubreve
ENCODING 364
SWIDTH 583 0
DWIDTH 8 0
BBX 8 15 0 -1
BITMAP
01643520
00457420
00662900
00155300
06531653
05051415
05140514
46441845
32410505
51500505
64610856
50665775
60614037
387568A6
04200000
ENDCHAR
STARTCHAR ubreve
ENCODING 365
SWIDTH 583 0
DWIDTH 8 0
BBX 8 15 0 -1
BITMAP
01643520
00457420
00662900
00155300
06531653
05051415
05140514
46441845
32410505
51500505
64610856
50665775
60614037
387568A6
04200000
ENDCHAR
STARTCHAR Uring
ENCODING 366
SWIDTH 583 0
DWIDTH 8 0
BBX 8 16 0 -1
BITMAP
00055200
00416400
00678320
00732800
00244300
06531653
05051415
05140514
46441845
32410505
51500505
64610856
50665775
60614037
387568A6
04200000
ENDCHAR
STARTCHAR uring
ENCODING 367
SWIDTH 583 0
DWIDTH 8 0
BBX 8 16 0 -1
BITMAP
00055200
00416400
00678320
00732800
00244300
06531653
05051415
05140514
46441845
32410505
51500505
64610856
50665775
60614037
387568A6
04200000
ENDCHAR
STARTCHAR Uhungarumlaut
ENCODING 368
SWIDTH 583 0
DWIDTH 8 0
BBX 8 15 0 -1
BITMAP
00034250
00055623
00537350
00241500
06531653
05051415
05140514
46441845
32410505
51500505
64610856
50665775
60614037
387568A6
04200000
ENDCHAR
STARTCHAR uhungarumlaut
ENCODING 369
SWIDTH 583 0
DWIDTH 8 0
BBX 8 15 0 -1
BITMAP
00034250
00055623
00537350
00241500
06531653
05051415
05140514
46441845
32410505
51500505
64610856
50665775
60614037
387568A6
04200000
ENDCHAR
STARTCHAR Uogonek
ENCODING 370
SWIDTH 583 0
DWIDTH 8 0
BBX 8 14 0 -4
BITMAP
06531653
05051415
05140514
46441845
32410505
51500505
64610856
50665775
60614037
387569A6
04200650
00001774
00000345
00000021
ENDCHAR
STARTCHAR uogonek
ENCODING 371
SWIDTH 583 0
DWIDTH 8 0
BBX 8 14 0 -4
BITMAP
06531653
05051415
05140514
46441845
32410505
51500505
64610856
50665775
60614037
387569A6
04200650
00001774
00000345
00000021
ENDCHAR
STARTCHAR Wcircumflex
ENCODING 372
SWIDTH 735 0
DWIDTH 10 0
BBX 11 14 0 -1
BITMAP
000069200000
000426500000
000555230000
252332525400
605055350510
505180550500
546684694500
523742550500
050805342300
075849855200
060428505000
037145605000
028771726000
003200131000
ENDCHAR
STARTCHAR wcircumflex
ENCODING 373
SWIDTH 735 0
DWIDTH 10 0
BBX 11 14 0 -1
BITMAP
000069200000
000426500000
000555230000
252332525400
605055350510
505180550500
546684694500
523742550500
050805342300
075849855200
060428505000
037145605000
028771726000
003200131000
ENDCHAR
STARTCHAR Ycircumflex
ENCODING 374
SWIDTH 484 0
DWIDTH 7 0
BBX 9 13 -1 0
BITMAP
0005740000
0033650000
0053615000
0374076300
2433050610
1605350600
0264954300
0061506000
0008314000
0006461000
0024050000
0060410000
0035600000
ENDCHAR
STARTCHAR ycircumflex
ENCODING 375
SWIDTH 484 0
DWIDTH 7 0
BBX 9 13 -1 0
BITMAP
0005740000
0033650000
0053615000
0374076300
2433050610
1605350600
0264954300
0061506000
0008314000
0006461000
0024050000
0060410000
0035600000
ENDCHAR
STARTCHAR Ydieresis
ENCODING 376
SWIDTH 484 0
DWIDTH 7 0
BBX 9 12 -1 0
BITMAP
0055354000
0053515000
0385178300
2433050610
1605350600
0264954300
0061506000
0008314000
0006461000
0024050000
0060410000
0035600000
ENDCHAR
STARTCHAR Zacute
ENCODING 377
SWIDTH 458 0
DWIDTH 6 0
BBX 8 14 -1 0
BITMAP
00001500
00005240
00033600
00015000
01547550
05005063
02657493
00047260
00060610
00622400
00656000
06129540
15055050
04775550
ENDCHAR
STARTCHAR zacute
ENCODING 378
SWIDTH 458 0
DWIDTH 6 0
BBX 8 14 -1 0
BITMAP
00001500
00005240
00033600
00015000
01547550
05005063
02657493
00047260
00060610
00622400
00656000
06129540
15055050
04775550
ENDCHAR
STARTCHAR Zdotaccent
ENCODING 379
SWIDTH 458 0
DWIDTH 6 0
BBX 8 13 -1 0
BITMAP
00045300
00051400
00035100
01547550
05005063
02657493
00047260
00060610
00622400
00656000
06129540
15055050
04775550
ENDCHAR
STARTCHAR zdotaccent
ENCODING 380
SWIDTH 458 0
DWIDTH 6 0
BBX 8 13 -1 0
BITMAP
00045300
00051400
00035100
01547550
05005063
02657493
00047260
00060610
00622400
00656000
06129540
15055050
04775550
ENDCHAR
STARTCHAR Zcaron
ENCODING 381
SWIDTH 458 0
DWIDTH 6 0
BBX 8 15 -1 0
BITMAP
00000100
00664540
00527420
00056500
00035000
01547550
05005063
02657493
00047260
00060610
00622400
00656000
06129540
15055050
04775550
ENDCHAR
STARTCHAR zcaron
ENCODING 382
SWIDTH 458 0
DWIDTH 6 0
BBX 8 15 -1 0
BITMAP
00000100
00664540
00527420
00056500
00035000
01547550
05005063
02657493
00047260
00060610
00622400
00656000
06129540
15055050
04775550
ENDCHAR
STARTCHAR AEacute
ENCODING 508
SWIDTH 797 0
DWIDTH 11 0
BBX 13 14 -1 0
BITMAP
00000003300000
00000014600000
00000063300000
00000034000000
00002565675600
00006160550320
00024060865600
00085583500000
00141650856000
00705350515000
02656384743000
06056551875400
33050241550500
05630265755600
ENDCHAR
STARTCHAR aeacute
ENCODING 509
SWIDTH 797 0
DWIDTH 11 0
BBX 13 14 -1 0
BITMAP
00000003300000
00000014600000
00000063300000
00000034000000
00002565675600
00006160550320
00024060865600
00085583500000
00141650856000
00705350515000
02656384743000
06056551875400
33050241550500
05630265755600
ENDCHAR
STARTCHAR Oslashacute
ENCODING 510
SWIDTH 612 0
DWIDTH 9 0
BBX 9 15 0 -1
BITMAP
0000051000
0000515000
0002460000
0000510000
0655766300
0500550600
0757732700
1835846600
1418133500
3336090500
5487465610
5241975A00
7605500830
3418658810
0460000000
ENDCHAR
STARTCHAR oslashacute
ENCODING 511
SWIDTH 612 0
DWIDTH 9 0
BBX 9 15 0 -1
BITMAP
0000051000
0000515000
0002460000
0000510000
0655766300
0500550600
0757732700
1835846600
1418133500
3336090500
5487465610
5241975A00
7605500830
3418658810
0460000000
ENDCHAR
STARTCHAR dotlessj
ENCODING 567
SWIDTH 482 0
DWIDTH 7 0
BBX 8 11 -1 -1
BITMAP
00001652
00002313
00002432
00004644
00103242
06613342
25066644
03549241
00721641
00060962
00025100
ENDCHAR
STARTCHAR circumflex
ENCODING 710
SWIDTH 308 0
DWIDTH 4 0
BBX 5 4 0 10
BITMAP
069200
426500
555230
332500
ENDCHAR
STARTCHAR caron
ENCODING 711
SWIDTH 310 0
DWIDTH 4 0
BBX 5 5 0 10
BITMAP
000100
755530
525510
148300
045000
ENDCHAR
STARTCHAR breve
ENCODING 728
SWIDTH 333 0
DWIDTH 5 0
BBX 5 4 0 10
BITMAP
651630
555450
562810
155400
ENDCHAR
STARTCHAR dotaccent
ENCODING 729
SWIDTH 166 0
DWIDTH 2 0
BBX 3 3 0 10
BITMAP
5520
5220
3500
ENDCHAR
STARTCHAR ring
ENCODING 730
SWIDTH 309 0
DWIDTH 4 0
BBX 5 5 0 10
BITMAP
055300
426400
669230
632800
244400
ENDCHAR
STARTCHAR ogonek
ENCODING 731
SWIDTH 226 0
DWIDTH 3 0
BBX 4 5 0 -4
BITMAP
4540
5320
7750
2651
0120
ENDCHAR
STARTCHAR tilde
ENCODING 732
SWIDTH 410 0
DWIDTH 6 0
BBX 6 4 0 10
BITMAP
069265
426824
556280
322530
ENDCHAR
STARTCHAR hungarumlaut
ENCODING 733
SWIDTH 361 0
DWIDTH 5 0
BBX 5 4 0 10
BITMAP
042330
236550
647330
433400
ENDCHAR
STARTCHAR uni0312
ENCODING 786
SWIDTH 202 0
DWIDTH 3 0
BBX 3 4 0 6
BITMAP
0640
4250
6500
2100
ENDCHAR
STARTCHAR uni0315
ENCODING 789
SWIDTH 202 0
DWIDTH 3 0
BBX 3 4 0 6
BITMAP
0640
4250
6500
2100
ENDCHAR
STARTCHAR uni0326
ENCODING 806
SWIDTH 201 0
DWIDTH 3 0
BBX 3 4 0 -4
BITMAP
0420
2360
6410
4300
ENDCHAR
STARTCHAR Wgrave
ENCODING 7808
SWIDTH 735 0
DWIDTH 10 0
BBX 11 14 0 -1
BITMAP
000152000000
000505000000
000055000000
252033025400
605055350510
505180550500
546684694500
523742550500
050805342300
075849855200
060428505000
037145605000
028771726000
003200131000
ENDCHAR
STARTCHAR wgrave
ENCODING 7809
SWIDTH 735 0
DWIDTH 10 0
BBX 11 14 0 -1
BITMAP
000152000000
000505000000
000055000000
252033025400
605055350510
505180550500
546684694500
523742550500
050805342300
075849855200
060428505000
037145605000
028771726000
003200131000
ENDCHAR
STARTCHAR Wacute
ENCODING 7810
SWIDTH 735 0
DWIDTH 10 0
BBX 11 14 0 -1
BITMAP
000001500000
000005240000
000033600000
252016025400
605055350510
505180550500
546684694500
523742550500
050805342300
075849855200
060428505000
037145605000
028771726000
003200131000
ENDCHAR
STARTCHAR wacute
ENCODING 7811
SWIDTH 735 0
DWIDTH 10 0
BBX 11 14 0 -1
BITMAP
000001500000
000005240000
000033600000
252016025400
605055350510
505180550500
546684694500
523742550500
050805342300
075849855200
060428505000
037145605000
028771726000
003200131000
ENDCHAR
STARTCHAR Wdieresis
ENCODING 7812
SWIDTH 735 0
DWIDTH 10 0
BBX 11 13 0 -1
BITMAP
001553530000
001445050000
252542435400
605055350510
505180550500
546684694500
523742550500
050805342300
075849855200
060428505000
037145605000
028771726000
003200131000
ENDCHAR
STARTCHAR wdieresis
ENCODING 7813
SWIDTH 735 0
DWIDTH 10 0
BBX 11 13 0 -1
BITMAP
001553530000
001445050000
252542435400
605055350510
505180550500
546684694500
523742550500
050805342300
075849855200
060428505000
037145605000
028771726000
003200131000
ENDCHAR
STARTCHAR Ygrave
ENCODING 7922
SWIDTH 484 0
DWIDTH 7 0
BBX 9 13 -1 0
BITMAP
0005300000
0033500000
0005410000
0352425300
2433050610
1605350600
0264954300
0061506000
0008314000
0006461000
0024050000
0060410000
0035600000
ENDCHAR
STARTCHAR ygrave
ENCODING 7923
SWIDTH 484 0
DWIDTH 7 0
BBX 9 13 -1 0
BITMAP
0005300000
0033500000
0005410000
0352425300
2433050610
1605350600
0264954300
0061506000
0008314000
0006461000
0024050000
0060410000
0035600000
ENDCHAR
STARTCHAR endash
ENCODING 8211
SWIDTH 591 0
DWIDTH 8 0
BBX 8 3 0 3
BITMAP
55585856
50040405
25555554
ENDCHAR
STARTCHAR emdash
ENCODING 8212
SWIDTH 726 0
DWIDTH 10 0
BBX 10 3 0 3
BITMAP
5557558555
5004004005
2545555554
ENDCHAR
STARTCHAR quoteleft
ENCODING 8216
SWIDTH 291 0
DWIDTH 4 0
BBX 4 7 0 4
BITMAP
0141
0527
0605
3645
6050
6050
1520
ENDCHAR
STARTCHAR quoteright
ENCODING 8217
SWIDTH 291 0
DWIDTH 4 0
BBX 4 7 0 4
BITMAP
0141
0527
0605
3645
6050
6050
1520
ENDCHAR
STARTCHAR quotesinglbase
ENCODING 8218
SWIDTH 228 0
DWIDTH 3 0
BBX 4 4 -1 -2
BITMAP
0165
0606
4133
1650
ENDCHAR
STARTCHAR quotedblleft
ENCODING 8220
SWIDTH 532 0
DWIDTH 7 0
BBX 8 7 0 4
BITMAP
01410320
05271643
06055141
36457550
60542240
60551500
15204400
ENDCHAR
STARTCHAR quotedblright
ENCODING 8221
SWIDTH 532 0
DWIDTH 7 0
BBX 8 7 0 4
BITMAP
01410320
05271643
06055141
36457550
60542240
60551500
15204400
ENDCHAR
STARTCHAR quotedblbase
ENCODING 8222
SWIDTH 448 0
DWIDTH 6 0
BBX 7 4 -1 -2
BITMAP
01650650
06065060
41362330
16506500
ENDCHAR
STARTCHAR dagger
ENCODING 8224
SWIDTH 453 0
DWIDTH 6 0
BBX 6 12 0 -1
BITMAP
005630
005050
356085
507155
567387
005050
005050
019550
005150
005140
033050
006620
ENDCHAR
STARTCHAR daggerdbl
ENCODING 8225
SWIDTH 462 0
DWIDTH 6 0
BBX 7 12 0 -1
BITMAP
00563000
00505000
25608500
50625410
55837700
00505000
00505000
35957600
50505410
45508600
02405000
00662000
ENDCHAR
STARTCHAR bullet
ENCODING 8226
SWIDTH 275 0
DWIDTH 4 0
BBX 3 3 0 4
BITMAP
0220
1560
1770
ENDCHAR
STARTCHAR ellipsis
ENCODING 8230
SWIDTH 605 0
DWIDTH 8 0
BBX 9 3 0 -1
BITMAP
5446547610
5256336610
0301201200
ENDCHAR
STARTCHAR perthousand
ENCODING 8240
SWIDTH 1249 0
DWIDTH 17 0
BBX 18 10 0 0
BITMAP
244410330000000000
554180441000000000
423641340000000000
453445440000000000
542444044441044310
144644255207453071
000007640665406651
000022540444404440
000050445453554521
000024325477254770
ENDCHAR
STARTCHAR guilsinglleft
ENCODING 8249
SWIDTH 359 0
DWIDTH 5 0
BBX 5 7 0 1
BITMAP
005530
251160
503500
766300
251250
005530
000100
ENDCHAR
STARTCHAR guilsinglright
ENCODING 8250
SWIDTH 359 0
DWIDTH 5 0
BBX 5 7 0 1
BITMAP
365000
511530
044050
036670
421520
356000
010000
ENDCHAR
STARTCHAR fraction
ENCODING 8260
SWIDTH 266 0
DWIDTH 4 0
BBX 4 10 0 0
BITMAP
0141
0405
0404
0733
0441
2240
5450
4040
4210
4500
ENDCHAR
STARTCHAR Euro
ENCODING 8364
SWIDTH 690 0
DWIDTH 10 0
BBX 10 11 0 -1
BITMAP
0006557550
0005005041
0128576570
0548350000
0644240000
4583320000
5054620000
3580666570
0060605032
0039756560
0003100000
ENDCHAR
STARTCHAR partialdiff
ENCODING 8706
SWIDTH 519 0
DWIDTH 7 0
BBX 9 11 -1 -1
BITMAP
0000662000
0002305000
0000506000
0000649000
0016715100
0182241400
2526675600
0765570500
0360060420
0015465610
0000140000
ENDCHAR
STARTCHAR minus
ENCODING 8722
SWIDTH 467 0
DWIDTH 7 0
BBX 7 3 0 3
BITMAP
45585700
50040320
35555600
ENDCHAR
STARTCHAR fi
ENCODING 64257
SWIDTH 741 0
DWIDTH 10 0
BBX 10 10 0 0
BITMAP
2666655555
3232505505
3245655505
6552000856
4155540506
4152050505
5555510756
4150000505
5050000505
5561000656
ENDCHAR
STARTCHAR fl
ENCODING 64258
SWIDTH 942 0
DWIDTH 13 0
BBX 14 10 0 0
BITMAP
26666555550000
32325055050000
32456555050000
65520008560000
41555405060000
41520505050000
55555107560000
41500005077552
50500005055005
55610006586563
ENDCHAR
STARTCHAR .notdef
ENCODING -1
SWIDTH 200 0
DWIDTH 3 0
BBX 1 1 0 0
BITMAP
00
ENDCHAR
STARTCHAR .null
ENCODING -1
SWIDTH 0 0
DWIDTH 0 0
BBX 1 1 0 0
BITMAP
00
ENDCHAR
STARTCHAR nonmarkingreturn
ENCODING -1
SWIDTH 200 0
DWIDTH 3 0
BBX 1 1 0 0
BITMAP
00
ENDCHAR
ENDFONT
